<?xml version="1.0" standalone="no"?>
<!DOCTYPE svg PUBLIC "-//W3C//DTD SVG 20010904//EN"
 "http://www.w3.org/TR/2001/REC-SVG-20010904/DTD/svg10.dtd">
<svg version="1.0" xmlns="http://www.w3.org/2000/svg"
 width="650.000000pt" height="1100.000000pt" viewBox="0 0 650.000000 1100.000000"
 preserveAspectRatio="xMidYMid meet">

<g transform="translate(0.000000,1100.000000) scale(0.100000,-0.100000)"
fill="#000000" stroke="none">
<path d="M2053 10509 c-6 -8 -14 -28 -17 -44 -2 -17 -5 -31 -6 -32 -2 -2 -3
-7 -4 -12 0 -5 -4 -13 -8 -17 -30 -30 27 -100 145 -178 57 -38 74 -58 80 -93
1 -10 12 -32 23 -48 34 -50 39 -61 13 -35 -14 14 -24 27 -23 29 2 2 -6 12 -16
24 -11 11 -16 25 -13 31 4 6 -1 5 -10 -3 -9 -7 -17 -10 -17 -5 0 4 -7 -1 -16
-12 -8 -10 -13 -13 -9 -6 3 6 2 12 -3 12 -16 0 -21 -25 -12 -64 5 -21 4 -53
-3 -77 -10 -41 -9 -41 34 -80 75 -67 145 -111 180 -112 29 -2 33 1 35 23 2 19
-5 30 -27 42 -34 20 -40 58 -9 58 11 0 20 4 20 9 0 8 -37 24 -52 22 -5 -1 -8
6 -8 14 0 8 14 18 33 23 29 8 32 11 29 43 -4 40 -25 146 -41 205 -24 90 -92
128 -99 55 -2 -21 0 -31 7 -27 7 4 9 1 5 -8 -3 -8 0 -24 6 -36 14 -26 7 -23
-47 18 -18 13 -39 25 -47 26 -16 2 -77 77 -91 111 -4 11 -11 51 -14 89 -5 55
-8 66 -18 55z"/>
<path d="M1563 10323 c-7 -29 -7 -46 2 -63 10 -20 13 -20 18 -5 9 22 8 65 -2
89 -6 16 -9 13 -18 -21z"/>
<path d="M2000 9909 c13 -23 22 -25 13 -2 -5 12 -3 14 8 8 8 -5 11 -4 6 0 -4
5 -14 10 -22 11 -12 2 -12 -2 -5 -17z"/>
<path d="M2035 9890 c-4 -6 2 -22 14 -34 12 -12 21 -28 21 -34 0 -6 17 -23 38
-36 67 -42 212 -209 212 -243 0 -12 -26 10 -75 62 -41 44 -75 76 -75 70 0 -6
-3 -6 -8 1 -8 12 -74 44 -102 49 -10 2 -27 8 -37 13 -30 16 -84 22 -76 9 3 -7
-6 -1 -20 12 -21 19 -29 22 -41 12 -12 -10 -19 -8 -35 8 -12 12 -21 16 -21 9
0 -6 -7 -3 -15 8 -8 10 -14 15 -13 9 3 -11 -4 -15 -28 -15 -8 0 -13 4 -10 9 6
10 -11 10 -29 0 -5 -3 -16 -4 -22 -3 -7 1 -23 2 -34 3 -19 1 -20 3 -8 19 11
14 10 13 -9 -2 -26 -23 -26 -21 -4 -23 46 -4 213 -44 260 -62 50 -20 79 -20
67 -1 -7 11 22 7 32 -5 4 -4 3 -5 -3 -2 -7 4 -17 1 -23 -7 -9 -11 -4 -18 23
-34 47 -28 70 -65 57 -89 -6 -10 -18 -43 -26 -73 -11 -36 -33 -76 -66 -115
-117 -143 -145 -215 -40 -105 39 41 71 80 71 87 0 7 9 17 19 23 21 11 36 45
32 73 -1 9 4 17 13 17 8 0 21 3 29 6 22 8 57 -31 57 -65 0 -20 -8 -34 -25 -45
-24 -16 -25 -16 -25 4 0 11 -6 20 -13 20 -18 0 -77 -83 -77 -109 0 -24 -25
-28 -34 -5 -7 17 -28 9 -24 -9 2 -7 -3 -27 -11 -45 -11 -26 -11 -35 -1 -47 10
-12 10 -18 -1 -32 -8 -9 -9 -14 -2 -10 7 4 15 -5 22 -23 5 -17 8 -30 5 -30 -3
0 1 -6 8 -14 7 -8 16 -12 19 -10 4 2 9 -3 13 -11 3 -9 12 -12 22 -8 13 5 12 1
-4 -15 -13 -13 -22 -35 -22 -52 0 -17 -5 -29 -11 -27 -6 1 -14 -5 -16 -13 -4
-13 -3 -13 6 0 6 8 11 11 11 6 0 -5 9 -1 20 9 22 19 28 7 8 -14 -11 -10 -10
-15 3 -24 14 -11 14 -14 -3 -31 -10 -11 -18 -23 -18 -28 0 -13 20 -9 20 5 0 6
7 3 16 -8 8 -11 12 -26 9 -33 -6 -15 11 -42 26 -42 5 0 7 16 5 36 -4 29 -2 33
9 24 9 -8 15 -8 20 0 9 14 22 13 22 -4 0 -7 -7 -13 -15 -12 -8 1 -17 -5 -20
-13 -3 -8 0 -11 7 -7 6 4 11 4 11 1 0 -11 -22 -50 -32 -56 -5 -3 -1 -12 8 -20
10 -8 15 -9 11 -2 -4 6 -3 14 2 18 6 3 8 -6 5 -21 -3 -14 0 -32 6 -39 8 -9 8
-15 0 -20 -6 -3 -8 -11 -4 -16 3 -6 12 -5 22 3 11 9 13 9 9 1 -12 -19 28 -36
43 -18 6 8 9 18 6 23 -3 6 5 17 19 26 15 10 26 12 30 6 4 -6 10 -8 15 -5 4 3
10 -2 14 -10 3 -8 0 -15 -6 -15 -17 0 0 -13 21 -17 26 -4 41 18 47 64 2 21 7
45 10 55 7 24 -27 75 -48 72 -18 -2 -23 11 -19 54 1 14 -2 21 -8 18 -5 -4 -13
-1 -17 5 -4 7 -3 9 4 5 6 -3 14 0 19 7 9 15 84 47 109 47 8 0 12 -5 9 -11 -4
-6 2 -5 14 3 12 7 21 17 21 22 0 4 -6 4 -13 -2 -10 -8 -13 -6 -14 11 -2 17 0
19 7 7 9 -13 10 -13 10 0 0 13 1 13 10 0 5 -8 10 -11 10 -7 0 5 7 1 16 -7 8
-9 20 -13 26 -9 7 4 3 13 -12 25 -19 16 -21 20 -9 36 12 15 12 16 -2 4 -14
-10 -17 -9 -22 9 -4 13 -10 18 -17 14 -15 -9 -30 13 -23 32 3 8 10 10 17 5 15
-13 47 -11 39 1 -4 6 1 8 11 4 9 -4 15 -3 12 2 -3 5 1 14 9 21 8 7 15 18 15
24 0 6 9 17 21 24 12 7 18 16 16 19 -3 3 11 28 32 57 41 57 55 86 41 86 -6 0
-5 9 2 20 7 11 15 15 19 9 4 -7 9 -4 12 6 4 9 3 13 -3 10 -6 -3 -10 -1 -10 5
0 6 -5 8 -11 4 -8 -4 -8 0 0 15 7 11 14 21 17 21 3 0 3 -4 0 -9 -3 -5 2 -12
11 -15 10 -4 14 -4 10 0 -4 4 1 17 10 28 17 20 17 20 -1 6 -18 -14 -19 -14 -6
9 10 20 10 23 -2 19 -10 -4 -14 2 -13 22 0 16 4 26 8 23 5 -3 6 -12 3 -20 -4
-8 -1 -11 5 -8 6 4 7 14 4 24 -4 9 -8 25 -11 35 -2 11 -8 24 -13 29 -12 12
-101 17 -101 6 0 -9 22 -13 49 -10 8 2 10 -3 6 -11 -3 -7 1 -4 9 6 9 11 16 16
16 10 0 -18 -17 -36 -31 -33 -8 2 -24 -3 -37 -10 -13 -7 -31 -9 -40 -5 -32 13
-63 10 -79 -9 -16 -17 -16 -17 3 -11 14 4 16 3 5 -4 -13 -9 -48 -8 -78 3 -21
7 -15 25 8 25 20 0 90 46 98 64 2 5 12 17 23 28 19 19 17 38 -6 38 -8 0 -21
12 -31 26 -18 29 -77 58 -86 43 -3 -5 -16 0 -29 11 -13 11 -27 20 -31 20 -5 0
-25 14 -45 32 -48 42 -122 79 -130 66 -5 -7 -2 -8 5 -4 8 5 14 0 18 -13 3 -12
10 -18 17 -14 6 4 5 0 -2 -9 -15 -19 -33 -18 -58 2 -10 8 -15 10 -11 4 3 -6 0
-11 -8 -11 -8 0 -12 4 -9 8 2 4 -4 14 -14 21 -11 7 -20 17 -20 21 -1 15 -10
19 -17 7z m-120 -131 c11 -16 1 -19 -13 -3 -7 8 -8 14 -3 14 5 0 13 -5 16 -11z
m166 -460 c-5 -13 -10 -19 -10 -12 -1 15 10 45 15 40 3 -2 0 -15 -5 -28z m404
-49 c-5 -8 -11 -8 -17 -2 -6 6 -7 16 -3 22 5 8 11 8 17 2 6 -6 7 -16 3 -22z
m-95 -29 c0 -10 -30 -24 -37 -17 -3 3 -2 9 2 15 8 13 35 15 35 2z m-20 -176
c-7 -8 -9 -15 -4 -15 12 0 -19 -20 -31 -20 -6 0 -5 3 1 8 6 4 17 18 23 30 7
13 15 21 18 18 3 -3 0 -12 -7 -21z m-305 -55 c3 -5 1 -10 -4 -10 -6 0 -11 5
-11 10 0 6 2 10 4 10 3 0 8 -4 11 -10z m60 -90 c4 -6 1 -17 -5 -26 -11 -12
-14 -12 -26 3 -7 10 -14 21 -14 26 0 11 38 8 45 -3z m32 -37 c-3 -10 -5 -4 -5
12 0 17 2 24 5 18 2 -7 2 -21 0 -30z m145 -48 c3 -14 2 -27 -1 -30 -4 -2 -8
10 -9 26 -3 36 4 38 10 4z m35 -27 c-3 -8 -6 -5 -6 6 -1 11 2 17 5 13 3 -3 4
-12 1 -19z m-24 -23 c4 13 5 13 3 -1 0 -9 -12 -24 -26 -32 -14 -9 -22 -12 -17
-7 4 4 0 19 -9 33 -10 15 -11 21 -3 17 9 -6 11 -3 5 11 -5 13 1 10 18 -9 19
-23 25 -25 29 -12z"/>
<path d="M2135 9849 c-4 -6 -5 -12 -2 -15 2 -3 7 2 10 11 7 17 1 20 -8 4z"/>
<path d="M1931 9453 c-7 -16 -8 -30 -3 -35 6 -6 14 3 21 23 13 38 13 39 3 39
-5 0 -14 -12 -21 -27z"/>
<path d="M3206 9462 c-2 -4 -23 -7 -46 -5 -22 1 -38 -2 -35 -7 3 -4 -8 -6 -25
-4 -27 5 -31 2 -30 -21 1 -3 -6 -13 -15 -21 -12 -12 -19 -13 -29 -5 -15 13
-66 5 -66 -9 0 -5 4 -20 10 -34 10 -27 -8 -56 -35 -56 -17 0 -48 -47 -39 -61
3 -6 3 -22 -1 -36 -5 -22 -10 -25 -35 -19 -31 6 -52 -15 -43 -41 2 -6 -12 -19
-32 -28 -19 -10 -38 -21 -40 -26 -3 -4 -13 -6 -23 -3 -11 4 -13 3 -6 -3 29
-21 12 -83 -22 -83 -9 0 -14 -11 -14 -32 0 -19 -9 -41 -22 -56 -13 -13 -24
-37 -24 -53 -1 -16 -2 -38 -3 -49 0 -11 -10 -29 -21 -40 l-20 -20 22 -31 23
-30 -21 -17 c-44 -37 -47 -48 -19 -75 l27 -24 -27 -21 -26 -21 22 -39 c25 -43
21 -72 -11 -72 -30 0 -26 -38 6 -50 14 -6 30 -8 35 -4 5 3 9 0 9 -6 0 -6 5 -8
12 -4 8 5 9 2 5 -9 -3 -10 -2 -17 2 -17 5 0 8 -11 7 -25 -2 -13 0 -22 4 -20 4
3 10 -9 14 -25 6 -32 64 -122 113 -177 27 -29 111 -85 99 -65 -3 5 1 9 9 9 8
0 12 -4 9 -8 -2 -4 0 -10 6 -14 5 -3 10 -1 10 5 0 8 8 10 23 6 12 -3 52 -15
89 -25 37 -10 70 -16 73 -13 3 3 5 0 5 -7 0 -7 5 -9 10 -6 6 3 10 1 10 -5 0
-6 5 -8 10 -5 6 3 10 2 10 -3 0 -5 6 -9 13 -9 6 0 21 -4 32 -9 18 -7 19 -6 5
11 -14 17 -13 18 3 12 10 -4 21 -7 23 -7 3 0 3 -4 -1 -9 -3 -5 -1 -12 5 -16 5
-3 10 1 10 11 0 12 5 10 21 -10 16 -21 24 -24 30 -15 6 10 14 6 33 -14 29 -31
31 -38 15 -54 -8 -8 -7 -13 2 -18 7 -5 10 -4 6 2 -4 6 0 13 8 17 8 3 15 1 15
-4 0 -6 6 -9 13 -8 6 2 11 -3 9 -10 -1 -8 2 -11 7 -8 11 7 9 25 -4 46 -7 12
-6 13 7 3 8 -7 19 -9 24 -5 4 4 3 0 -4 -9 -10 -14 -10 -20 4 -34 11 -11 20
-13 27 -6 11 11 39 3 31 -10 -3 -5 0 -9 5 -9 17 0 13 21 -6 35 -14 11 -19 10
-29 -2 -10 -14 -12 -14 -17 1 -5 11 -3 15 5 10 7 -5 9 -2 5 9 -6 16 31 48 55
46 7 0 3 -4 -9 -9 -26 -10 -22 -35 8 -50 14 -8 19 -6 25 12 6 19 7 19 16 5 5
-10 14 -17 21 -17 7 0 6 4 -3 10 -8 5 -12 11 -10 14 3 2 13 -2 24 -9 24 -18
12 -39 -14 -25 -24 13 -33 13 -25 0 4 -6 1 -9 -6 -8 -6 2 -13 -2 -16 -9 -3 -7
3 -9 18 -6 13 4 20 2 16 -3 -3 -6 4 -11 15 -11 20 -2 20 -1 2 13 -18 15 -18
15 -1 10 10 -3 28 -1 39 5 11 6 18 7 15 2 -2 -4 10 -15 29 -24 18 -9 31 -13
29 -8 -3 4 7 17 22 29 16 13 29 17 31 11 2 -6 8 -9 13 -5 5 3 9 0 9 -5 0 -6
-6 -11 -14 -11 -8 0 -17 -7 -20 -16 -3 -8 -10 -12 -16 -9 -5 3 -10 0 -10 -8 0
-8 -9 -13 -22 -12 -13 1 -28 -5 -35 -14 -18 -24 -4 -34 15 -11 17 21 52 19 52
-2 0 -6 -5 -6 -14 1 -11 9 -18 8 -30 -4 -20 -21 -20 -24 2 -48 9 -11 11 -17 5
-13 -7 4 -13 3 -13 -3 0 -6 -7 -8 -16 -4 -9 3 -14 13 -11 24 3 11 0 22 -5 26
-6 3 -8 2 -5 -3 3 -6 1 -16 -4 -24 -7 -11 -8 -7 -5 13 3 16 10 35 16 42 8 9 6
14 -5 19 -11 4 -14 2 -9 -7 5 -7 1 -6 -10 3 -16 13 -18 12 -14 -6 1 -12 -4
-29 -12 -39 -9 -11 -10 -16 -2 -11 18 11 15 -5 -4 -18 -13 -10 -12 -12 6 -13
21 -2 100 -63 81 -63 -5 0 -8 -8 -6 -17 1 -10 -2 -23 -7 -30 -7 -8 -4 -11 11
-10 11 0 18 4 15 8 -2 4 3 10 11 13 9 3 20 16 25 28 7 18 9 19 9 6 1 -10 5
-18 11 -18 5 0 7 8 4 18 -5 14 -4 14 4 2 8 -10 8 -18 0 -28 -8 -9 -13 -10 -18
-1 -5 7 -10 8 -14 1 -3 -5 1 -12 9 -16 8 -3 17 -1 21 5 4 6 13 4 25 -7 11 -10
19 -12 19 -6 0 7 -5 12 -11 12 -6 0 -9 8 -7 18 2 9 10 17 18 17 11 0 15 -12
16 -47 0 -37 -3 -48 -15 -48 -13 0 -13 -2 -3 -9 11 -7 11 -9 -2 -14 -8 -3 -18
-1 -22 5 -4 7 -3 8 4 4 8 -5 10 -2 6 9 -6 14 -8 14 -19 -2 -7 -10 -11 -21 -9
-25 2 -4 -1 -10 -7 -14 -8 -4 -9 -3 -5 4 4 7 1 12 -9 12 -10 0 -13 -5 -9 -12
5 -7 3 -8 -7 -2 -20 12 -60 12 -84 0 -28 -14 -196 -22 -270 -12 -22 3 -71 8
-110 11 -70 6 -239 50 -365 93 -8 3 -18 5 -22 4 -4 -1 -42 5 -84 13 -42 8 -81
12 -85 9 -5 -3 -9 -1 -9 4 0 5 -15 9 -32 10 -18 1 -55 4 -83 7 -27 3 -76 5
-108 6 -31 1 -60 6 -63 11 -3 5 -12 4 -20 -3 -11 -9 -14 -9 -14 1 0 9 -5 8
-18 -3 -21 -19 -37 -23 -26 -6 4 7 0 9 -12 5 -11 -3 -33 -7 -51 -8 -18 -1 -30
-4 -27 -7 5 -5 -149 -40 -197 -45 -14 -2 -30 -5 -35 -9 -6 -3 -56 -21 -112
-40 -55 -18 -107 -39 -114 -44 -17 -14 -73 -38 -178 -75 -47 -16 -91 -35 -99
-42 -12 -9 -13 -8 -7 3 6 9 1 8 -17 -3 -13 -9 -34 -19 -46 -21 -12 -2 -35 -11
-52 -19 -19 -9 -27 -10 -22 -3 3 7 -4 3 -17 -8 -14 -12 -20 -14 -15 -5 7 12 6
13 -6 4 -24 -20 -112 -42 -145 -37 -19 3 -36 -1 -45 -9 -15 -15 -24 -18 -86
-22 -21 -1 -47 -7 -58 -13 -11 -6 -40 -9 -64 -8 -42 4 -88 -14 -75 -28 3 -3
-32 -5 -78 -3 l-85 2 8 -39 c12 -69 39 -85 159 -92 36 -2 77 -6 93 -9 15 -2
25 -1 22 4 -3 4 2 11 10 14 10 3 18 -1 22 -12 4 -9 15 -23 25 -30 11 -8 17
-21 13 -31 -3 -11 0 -18 9 -18 9 0 13 5 10 11 -3 6 1 2 10 -8 19 -23 13 -36
-14 -31 -12 2 -18 0 -15 -6 4 -5 11 -7 16 -4 12 8 12 -2 -1 -25 -6 -12 -18
-17 -31 -15 -17 3 -19 2 -9 -10 7 -8 16 -13 20 -10 8 5 24 -23 22 -40 -1 -5
11 -19 26 -29 27 -19 27 -19 11 0 -13 17 -15 25 -10 50 0 4 12 -1 26 -10 31
-20 32 -20 30 6 -2 26 -38 34 -59 13 -13 -14 -16 -14 -25 2 -6 13 -5 24 5 38
8 10 14 13 14 6 0 -9 5 -8 16 3 8 9 12 21 8 28 -6 10 -5 11 8 1 8 -7 18 -9 22
-5 4 4 7 2 6 -3 -1 -6 -2 -18 -1 -29 1 -16 3 -17 19 -5 14 11 15 11 5 -1 -15
-16 -17 -34 -5 -26 5 3 9 -1 9 -9 0 -8 -4 -12 -9 -9 -4 3 -8 1 -8 -4 0 -15 28
-22 33 -9 2 7 4 -5 3 -25 -1 -21 -2 -38 -4 -38 -1 0 -7 12 -13 28 -6 15 -13
22 -16 15 -2 -7 -11 -9 -19 -6 -8 3 -14 0 -14 -5 0 -6 9 -9 20 -7 11 2 20 0
20 -6 0 -5 -5 -9 -11 -9 -5 0 -7 -5 -4 -10 4 -6 10 -8 14 -6 4 3 8 -1 8 -9 0
-8 -8 -12 -20 -10 -15 3 -17 1 -7 -10 6 -8 18 -11 26 -8 8 3 14 1 14 -5 0 -6
-6 -13 -12 -15 -10 -4 -10 -6 0 -6 6 -1 13 0 15 1 6 5 45 -37 41 -44 -3 -4 2
-8 10 -8 9 0 16 -7 16 -15 0 -8 5 -15 11 -15 5 0 7 -6 3 -12 -4 -7 -4 -10 1
-6 10 9 65 -19 65 -33 0 -7 -6 -6 -17 2 -16 13 -17 12 -4 -3 7 -10 17 -15 22
-12 5 3 9 0 9 -7 0 -7 3 -10 6 -6 4 3 13 -1 21 -9 9 -8 22 -13 29 -10 8 3 13
2 11 -2 -1 -4 1 -7 5 -7 4 0 15 -11 24 -24 13 -18 18 -20 25 -10 7 11 9 10 9
-4 0 -10 4 -16 9 -13 5 3 15 -1 22 -10 13 -16 58 -39 72 -36 4 1 7 -3 7 -10 0
-6 3 -9 6 -6 3 4 14 -2 25 -13 11 -11 24 -17 29 -14 6 4 10 2 10 -3 0 -5 44
-24 97 -42 101 -35 155 -61 236 -112 52 -33 50 -27 33 -108 -1 -8 -10 -31 -18
-51 -18 -41 -31 -166 -18 -174 11 -7 10 -65 -1 -65 -4 0 -10 -8 -13 -18 -4
-10 -23 -36 -43 -58 -34 -36 -53 -72 -32 -58 5 3 6 11 2 17 -5 8 -2 8 9 0 8
-7 17 -12 19 -10 2 1 -5 -6 -16 -16 -35 -30 -64 -32 -83 -6 -9 13 -29 37 -44
52 -15 16 -28 32 -28 37 0 4 -14 13 -31 19 -17 6 -28 15 -24 21 3 5 0 10 -7
10 -7 0 -19 -9 -26 -20 -19 -31 -35 -25 -28 10 3 18 1 30 -5 30 -6 0 -7 -4 -4
-10 12 -19 -55 -3 -78 18 -13 12 -27 22 -31 22 -4 0 -22 10 -39 23 -18 12 -46
22 -62 23 -24 0 -30 -4 -31 -23 -1 -14 2 -21 10 -17 6 3 4 0 -5 -8 -16 -13
-15 -38 2 -38 6 0 8 4 4 9 -3 5 -1 13 5 16 6 4 9 1 8 -6 -2 -7 7 -18 20 -24
12 -7 26 -16 30 -20 4 -5 1 -5 -7 0 -9 5 -12 4 -7 -3 4 -7 13 -12 20 -12 8 0
20 -8 27 -17 13 -17 13 -17 -5 -3 -19 15 -19 14 -1 -20 16 -31 16 -33 1 -21
-14 12 -16 11 -13 -6 1 -11 10 -31 18 -44 9 -13 19 -31 24 -39 5 -8 -10 -3
-37 12 -86 51 -188 33 -173 -32 8 -34 38 -90 48 -90 4 0 5 -4 2 -10 -3 -5 13
-45 36 -88 l42 -78 31 29 c52 47 127 84 221 107 106 27 280 39 298 20 9 -9 7
-11 -8 -10 -56 6 -76 0 -86 -27 -6 -16 -12 -37 -14 -48 -1 -11 -3 -23 -4 -28
-2 -16 -58 -31 -121 -32 -36 -1 -89 -5 -119 -10 -50 -7 -53 -8 -32 -19 24 -13
19 -28 -7 -19 -11 5 -13 3 -7 -8 8 -12 6 -12 -8 0 -15 12 -21 9 -19 -9 0 -3
-11 -7 -26 -8 -15 -1 -28 -6 -30 -12 -2 -5 -9 -8 -15 -6 -7 1 -9 1 -4 -1 4 -3
7 -16 7 -29 0 -13 5 -24 11 -24 7 0 9 -9 5 -24 -4 -17 0 -26 17 -35 17 -9 18
-10 2 -6 -20 6 -20 6 0 -13 14 -14 24 -16 33 -10 8 7 12 6 12 -3 1 -11 3 -10
10 2 6 10 22 15 47 13 21 0 42 4 46 10 6 7 7 4 3 -6 -7 -25 10 -32 26 -11 16
22 69 22 118 1 25 -10 37 -12 42 -4 5 7 8 5 8 -5 0 -17 34 -20 57 -6 6 4 15 3
18 -3 5 -8 12 -7 23 2 10 8 13 9 9 1 -5 -8 4 -13 30 -15 25 -2 37 -8 35 -16
-1 -8 2 -11 8 -7 7 4 7 13 -1 27 -8 14 -8 23 0 31 8 8 11 5 11 -12 0 -20 2
-22 15 -11 13 11 14 10 7 -11 -5 -13 -24 -33 -42 -43 -19 -11 -30 -15 -26 -8
5 8 2 10 -8 6 -9 -3 -14 -10 -11 -14 3 -5 1 -12 -5 -15 -6 -4 -9 -3 -8 2 2 4
-2 10 -7 11 -6 2 -16 8 -22 14 -7 6 -13 7 -13 3 0 -4 -7 -2 -15 5 -8 7 -15 9
-15 4 0 -5 -5 -2 -10 6 -7 11 -10 11 -10 2 0 -7 -5 -10 -11 -6 -7 4 -6 -2 2
-17 11 -21 10 -22 -3 -12 -11 10 -19 9 -38 -4 -16 -11 -40 -16 -76 -14 -56 2
-62 3 -134 20 -51 12 -76 14 -68 5 6 -5 31 -12 53 -13 6 -1 11 -10 11 -22 0
-19 -1 -19 -13 -3 -12 16 -13 16 -13 -5 0 -12 -4 -20 -9 -17 -4 3 -8 -4 -7
-16 1 -16 -6 -22 -26 -25 -16 -2 -28 0 -28 5 0 5 -7 9 -15 9 -8 0 -15 -4 -15
-9 0 -4 -3 -7 -7 -6 -15 4 -53 -23 -53 -37 0 -7 -13 -23 -30 -35 -16 -12 -30
-28 -30 -37 0 -9 -7 -21 -17 -28 -13 -9 -13 -14 -3 -20 9 -5 11 -4 6 3 -6 11
5 16 26 13 4 0 5 7 2 17 -5 14 -4 15 5 2 16 -23 -21 -55 -67 -56 -24 0 -36 -5
-34 -13 1 -7 -2 -10 -7 -7 -5 4 -12 0 -14 -6 -4 -10 -6 -10 -6 0 -1 7 -6 10
-11 7 -6 -3 -10 -1 -10 5 0 6 -6 10 -13 9 -6 -1 -19 -1 -27 0 -13 1 -13 2 0
11 12 8 12 10 -3 16 -9 3 -14 11 -11 16 4 6 -4 5 -16 -2 -14 -8 -20 -18 -17
-31 3 -12 -2 -20 -15 -25 -24 -7 -39 -44 -25 -62 8 -11 12 -11 18 0 6 9 9 5
10 -12 1 -14 1 -29 0 -34 -1 -5 4 -4 12 2 11 10 17 9 27 -3 7 -8 18 -14 24
-13 22 5 18 -17 -5 -30 -66 -37 179 17 285 63 21 9 40 15 41 13 2 -2 17 -41
34 -87 17 -46 45 -106 62 -133 34 -53 99 -98 142 -98 16 0 33 -10 46 -26 15
-19 21 -22 21 -11 0 9 -4 18 -9 22 -6 3 -7 28 -4 55 4 34 1 62 -12 92 -16 42
-16 42 2 25 44 -39 51 -12 26 103 -5 23 -2 22 31 -13 37 -39 56 -41 56 -6 0
20 15 26 25 9 9 -14 24 -3 35 26 5 13 16 24 24 24 11 0 12 -7 4 -37 -6 -21
-10 -58 -9 -83 1 -25 -3 -71 -10 -103 -11 -53 -10 -59 8 -80 19 -21 19 -23 3
-38 -17 -16 -19 -15 -29 8 -6 13 -11 30 -11 38 0 8 -7 15 -15 15 -22 0 -18
-40 7 -67 21 -23 21 -23 1 -23 -25 0 -63 32 -63 53 0 19 -27 30 -33 13 -3 -8
1 -23 9 -35 8 -11 12 -21 7 -21 -4 0 -1 -5 7 -11 12 -9 11 -10 -8 -6 -12 3
-20 1 -16 -4 3 -5 11 -9 17 -9 43 -1 50 -47 21 -149 -8 -29 -13 -59 -10 -67 3
-7 0 -15 -7 -18 -9 -3 -9 -5 0 -5 7 -1 10 -8 6 -18 -4 -11 -3 -14 5 -9 9 5 9
0 2 -19 -13 -34 -13 -55 0 -35 16 25 12 -15 -6 -58 -8 -20 -16 -57 -16 -82 -1
-25 -6 -51 -11 -57 -6 -9 -6 -13 2 -13 9 0 9 -5 0 -21 -6 -12 -7 -19 -2 -16 5
4 10 0 10 -8 0 -8 -4 -12 -8 -10 -11 7 -19 -23 -12 -42 5 -12 3 -14 -7 -8 -9
6 -11 4 -5 -5 14 -23 14 -64 0 -114 -18 -59 -20 -90 -5 -64 6 9 11 28 12 42 2
19 5 22 15 14 7 -6 13 -16 13 -22 0 -6 -5 -4 -10 4 -8 13 -10 13 -10 -1 0 -9
3 -19 7 -23 4 -4 7 -24 6 -44 -2 -37 -2 -37 7 -7 5 17 15 54 22 84 13 49 15
52 28 35 8 -10 10 -15 3 -11 -11 7 -14 -4 -26 -110 -2 -18 0 -30 5 -27 4 3 8
16 8 28 0 29 24 89 33 80 3 -3 2 -17 -3 -30 -5 -13 -6 -26 0 -29 4 -3 11 3 13
12 3 10 5 0 6 -22 2 -37 3 -38 12 -16 5 14 7 37 4 51 -3 14 -1 37 5 51 10 22
10 21 5 -9 -3 -20 -1 -31 5 -27 6 3 10 16 11 28 1 20 2 20 8 -3 5 -15 14 -24
25 -24 15 2 16 -5 12 -47 -4 -29 -2 -49 4 -49 10 0 14 25 11 65 -1 12 3 32 8
45 7 18 10 20 10 8 1 -10 6 -18 12 -18 7 0 10 -14 7 -35 -2 -19 0 -35 4 -35 4
0 8 10 8 23 1 12 7 36 15 52 l14 30 -4 -38 c-3 -30 0 -37 13 -35 9 2 18 -7 23
-22 l7 -25 1 25 c1 20 3 22 11 10 6 -9 10 -10 10 -3 0 6 -5 15 -10 18 -6 4
-10 12 -9 18 1 7 -1 20 -6 30 -4 11 -3 23 4 30 8 8 11 7 11 -6 0 -10 11 -35
25 -57 14 -23 21 -42 15 -45 -6 -3 -9 -14 -9 -23 1 -15 2 -15 6 1 7 27 22 20
17 -8 -2 -14 -6 -36 -8 -48 -2 -13 0 -30 5 -38 8 -12 10 -12 8 1 -4 35 2 70
11 70 5 0 8 -14 6 -30 -2 -17 0 -33 5 -36 5 -3 9 -15 9 -27 0 -18 -2 -19 -10
-7 -8 12 -10 10 -11 -10 l-1 -25 -8 25 c-8 24 -8 24 -9 3 -1 -13 -6 -22 -13
-20 -7 1 -13 -4 -14 -10 -1 -7 -2 -14 -3 -15 -2 -2 -4 -16 -6 -31 -3 -22 0
-27 11 -23 20 8 8 -44 -15 -63 -15 -13 -15 -13 2 -8 12 5 17 1 17 -13 0 -11 5
-20 10 -20 6 0 10 -5 10 -11 0 -5 -4 -8 -9 -5 -4 3 -13 -6 -19 -19 -7 -14 -16
-25 -22 -25 -5 0 -10 -7 -10 -15 0 -8 -7 -15 -15 -15 -8 0 -15 -7 -15 -15 0
-19 16 -20 27 -1 9 16 53 31 54 19 0 -4 2 -21 4 -38 3 -21 1 -25 -5 -15 -5 8
-12 11 -16 7 -4 -4 -12 0 -19 9 -10 14 -13 14 -23 1 -10 -12 -10 -18 3 -31 9
-9 12 -16 7 -16 -6 0 -12 -7 -16 -15 -3 -8 0 -14 7 -12 7 1 10 -5 8 -13 -2 -8
-4 -22 -5 -29 -2 -8 -9 -17 -16 -19 -9 -3 -11 1 -7 12 9 23 -10 11 -24 -16 -8
-15 -8 -19 0 -14 6 4 11 2 11 -3 0 -6 7 -11 15 -11 8 0 14 -3 13 -7 -2 -5 0
-9 4 -11 16 -5 54 -47 50 -55 -2 -4 2 -6 10 -5 7 2 12 -3 10 -10 -1 -8 2 -11
8 -7 6 3 8 10 5 15 -7 11 22 7 32 -5 4 -4 2 -5 -4 -1 -7 4 -13 2 -13 -3 0 -6
4 -11 9 -11 4 0 20 -11 35 -25 15 -14 31 -25 37 -25 5 0 9 -7 9 -16 0 -8 4
-13 8 -10 5 3 9 -1 9 -9 0 -17 -32 -3 -40 17 -4 9 -6 9 -6 2 -1 -19 52 -74 71
-74 9 0 26 -13 37 -29 l21 -30 -57 -6 c-73 -8 -86 -12 -78 -25 5 -8 11 -7 21
0 7 7 19 10 26 7 8 -4 7 -6 -4 -6 -10 -1 -18 -6 -18 -12 0 -6 7 -8 16 -5 8 3
12 2 9 -4 -3 -6 -13 -10 -21 -10 -28 0 0 -27 96 -91 l95 -64 23 -85 c33 -124
39 -142 51 -170 9 -23 10 -22 7 13 -2 28 0 35 9 27 6 -5 14 -7 18 -4 8 9 -4
35 -13 29 -5 -3 -11 -1 -14 4 -7 10 20 9 30 -2 4 -4 14 -7 23 -7 14 0 14 2 1
10 -13 8 -13 11 -1 22 10 10 12 10 7 1 -12 -21 8 -15 21 7 11 16 10 18 -1 14
-12 -4 -14 2 -10 33 3 21 5 46 5 56 0 10 6 17 12 16 38 -5 48 1 37 21 -6 11
-8 20 -4 20 3 0 1 7 -6 15 -10 12 -10 15 0 15 8 0 22 7 32 17 10 9 18 11 18 5
0 -5 8 -8 18 -5 10 2 24 -2 31 -11 10 -12 17 -13 31 -4 25 16 52 -9 36 -34 -8
-14 -7 -20 8 -31 14 -10 16 -18 9 -31 -12 -22 -5 -68 10 -59 6 4 8 0 4 -10 -3
-10 -2 -17 3 -17 6 0 10 -7 10 -16 0 -10 5 -14 15 -10 13 5 13 2 -1 -25 -8
-17 -11 -28 -5 -25 6 4 11 0 11 -8 0 -26 1 -30 12 -43 6 -7 7 -13 4 -13 -4 0
-2 -10 5 -21 8 -16 8 -20 -1 -14 -9 6 -9 2 -1 -14 7 -11 8 -21 4 -21 -4 0 -2
-5 5 -12 13 -13 17 -42 5 -35 -5 3 -15 -2 -23 -11 -13 -14 -12 -15 4 -9 15 6
17 5 7 -7 -6 -7 -9 -20 -5 -29 3 -8 0 -18 -6 -22 -8 -5 -6 -14 5 -31 9 -14 11
-24 5 -24 -6 0 -9 -4 -5 -9 3 -5 -4 -16 -16 -25 -21 -14 -21 -16 -6 -48 8 -18
13 -37 9 -42 -3 -6 -7 -6 -9 1 -2 5 -22 -7 -45 -28 -23 -21 -45 -36 -50 -33
-20 12 28 -75 59 -107 22 -23 31 -39 24 -43 -6 -4 -11 -12 -11 -17 0 -6 5 -7
12 -3 6 4 8 3 5 -4 -4 -5 -16 -8 -27 -5 -23 6 -28 -15 -5 -23 13 -5 13 -9 3
-22 -7 -9 -8 -13 -3 -10 6 4 10 -3 10 -16 -2 -29 -14 -48 -27 -40 -6 4 -6 10
0 16 12 12 3 50 -9 42 -5 -3 -9 3 -9 13 -1 21 -39 134 -40 116 0 -7 7 -38 15
-70 9 -32 18 -119 22 -193 3 -74 10 -140 15 -147 5 -7 6 -18 2 -25 -13 -20
-14 -40 -4 -57 7 -11 8 -7 5 16 -3 32 17 64 29 45 3 -6 -1 -15 -9 -22 -9 -7
-13 -21 -10 -31 3 -9 1 -20 -5 -24 -6 -4 -10 -28 -9 -53 1 -26 0 -63 -1 -82
l-3 -35 -7 40 -7 40 -2 -35 c-1 -19 -4 -44 -7 -55 -4 -17 0 -21 24 -23 31 -2
198 -82 172 -82 -9 0 -21 5 -27 11 -6 6 -17 8 -23 4 -9 -6 -9 -9 0 -15 17 -10
-46 -38 -104 -44 -26 -4 -57 -11 -68 -17 -19 -10 -52 -20 -75 -21 -7 -1 -13
-4 -13 -8 0 -7 -6 -9 -63 -14 -21 -2 -43 -8 -50 -14 -11 -9 -75 -21 -120 -23
-9 0 -15 -4 -12 -9 3 -5 -10 -8 -30 -6 -20 1 -39 -2 -42 -7 -4 -6 -1 -7 7 -2
9 6 11 4 5 -4 -4 -8 -11 -9 -17 -3 -15 15 -60 -10 -54 -31 2 -9 0 -15 -5 -11
-5 3 -9 0 -9 -7 0 -7 8 -9 21 -6 15 4 19 2 15 -10 -3 -8 -6 -18 -6 -21 0 -4
-4 0 -10 8 -5 8 -12 12 -15 8 -12 -11 27 -58 52 -64 14 -4 165 -2 337 3 171 5
527 11 791 11 440 2 490 0 594 -18 116 -20 373 -28 398 -12 19 12 43 88 38
122 -4 36 -45 105 -45 78 0 -10 5 -18 10 -18 6 0 10 -5 10 -11 0 -5 -3 -8 -7
-6 -15 7 -41 -30 -32 -44 12 -19 11 -32 -1 -24 -5 3 -10 0 -10 -7 -1 -7 -8 -1
-16 15 -15 28 -27 37 -18 14 2 -7 -7 -23 -21 -35 -25 -22 -25 -22 -37 -2 -7
11 -20 20 -28 20 -12 -1 -11 -3 3 -11 9 -6 14 -16 11 -22 -4 -7 -4 -9 1 -5 11
10 37 -11 29 -24 -3 -5 -11 -5 -19 2 -10 8 -15 8 -21 -1 -5 -8 -12 -4 -25 12
-16 22 -18 22 -15 4 4 -27 -30 -51 -49 -35 -8 7 -12 16 -9 21 3 5 -1 9 -9 9
-8 0 -17 14 -21 31 -4 21 -10 28 -18 23 -9 -5 -8 -2 1 10 12 14 12 19 1 29
-10 10 -11 9 -5 -3 5 -8 -4 -4 -19 10 -15 14 -29 24 -32 23 -2 -2 -5 -3 -6 -2
-32 9 -52 12 -95 13 -28 1 -49 4 -46 9 2 4 -3 8 -11 8 -30 3 -56 7 -58 9 -3 2
-17 4 -108 14 -51 5 -86 13 -98 20 -5 3 -9 -1 -9 -9 0 -8 3 -14 6 -13 3 0 9
-1 14 -2 4 -1 12 -3 17 -4 6 0 10 -4 10 -8 0 -5 0 -11 0 -15 0 -3 -9 2 -20 12
-15 14 -20 15 -20 4 0 -11 -2 -11 -9 -1 -4 7 -12 12 -17 11 -18 -4 -64 13 -58
22 3 5 0 9 -5 9 -6 0 -11 -5 -11 -11 0 -8 -5 -7 -15 1 -10 8 -14 24 -11 42 2
15 0 28 -6 28 -6 0 -8 -7 -5 -15 4 -8 2 -17 -3 -20 -6 -4 -10 -1 -10 6 0 7 -8
21 -17 32 -12 13 -14 21 -7 24 6 2 19 9 29 17 15 11 15 14 3 27 -12 12 -12 17
-3 26 7 7 16 9 19 6 6 -6 10 15 9 44 -1 7 3 10 8 7 5 -3 9 3 9 13 0 14 2 15 9
5 7 -11 9 -10 15 3 3 9 11 13 18 10 7 -4 5 0 -4 8 -10 8 -18 17 -18 20 0 11
56 33 92 35 37 3 37 2 28 -23 -13 -33 -13 -32 6 -32 9 0 19 8 21 18 6 22 43
13 43 -11 0 -10 8 -24 17 -31 9 -8 14 -9 10 -3 -4 7 1 18 10 25 11 9 14 10 10
2 -13 -21 22 -62 51 -62 66 2 112 -4 112 -14 0 -6 3 -7 7 -4 3 4 16 -1 27 -10
l21 -18 -20 25 c-11 14 -36 44 -55 66 -52 62 -123 160 -172 239 -24 39 -56 87
-72 108 -30 39 -29 61 1 35 34 -28 209 -127 303 -171 138 -65 378 -139 500
-157 30 -4 82 -13 115 -20 94 -20 410 -18 525 3 268 49 310 59 370 84 125 54
251 154 314 252 59 91 140 256 161 326 19 65 39 255 54 500 14 232 -3 377 -60
511 -47 112 -92 194 -102 187 -6 -4 -8 0 -4 10 9 24 -21 51 -39 36 -17 -14
-19 2 -1 20 7 8 7 11 1 8 -11 -6 -24 18 -39 69 -3 11 -17 32 -32 45 -20 18
-25 20 -20 7 3 -10 3 -17 -1 -16 -11 2 -62 -24 -62 -32 0 -4 -8 -16 -18 -28
-15 -17 -21 -19 -31 -9 -10 9 -11 8 -6 -5 5 -12 2 -16 -12 -14 -10 2 -24 -6
-31 -18 -12 -19 -13 -19 -7 -1 6 20 6 20 -13 0 -11 -11 -18 -23 -16 -26 2 -4
-3 -12 -11 -19 -8 -7 -13 -16 -10 -19 2 -4 -2 -8 -9 -8 -9 0 -12 12 -10 36 2
27 1 31 -5 16 -5 -11 -6 -24 -3 -29 3 -5 0 -6 -6 -2 -7 4 -10 19 -7 34 l5 27
-10 -25 c-6 -14 -9 -33 -6 -43 3 -14 2 -16 -9 -7 -10 8 -11 18 -5 34 11 31 11
116 -1 116 -6 0 -7 -5 -3 -12 5 -7 3 -8 -6 -3 -11 7 -10 10 1 19 8 6 13 19 11
29 -2 10 1 24 7 30 5 7 6 19 2 26 -11 17 9 82 22 74 5 -3 1 7 -9 23 -36 59
-35 59 -81 7 -37 -41 -48 -47 -76 -44 -17 1 -38 8 -46 14 -9 8 -12 8 -8 1 3
-6 0 -11 -8 -11 -8 0 -12 4 -9 9 3 4 0 8 -6 8 -6 0 -9 4 -6 9 4 5 -2 8 -11 6
-10 -2 -18 -4 -18 -5 0 -7 -36 -6 -41 1 -3 5 -10 7 -15 3 -6 -3 -27 -7 -47 -9
-20 -2 -49 -8 -64 -14 -16 -6 -28 -9 -28 -6 0 2 -13 -1 -29 -6 -21 -8 -29 -16
-26 -29 3 -14 -1 -17 -12 -13 -13 5 -15 -3 -9 -60 3 -42 2 -68 -5 -73 -6 -3
-9 0 -7 7 1 8 -2 14 -7 14 -5 0 -8 -8 -7 -19 2 -11 -1 -16 -7 -12 -6 4 -11 3
-11 -2 0 -5 -6 -9 -12 -10 -27 -2 -48 -8 -55 -17 -4 -4 -2 -5 6 0 9 5 12 4 7
-3 -4 -7 -17 -8 -36 -2 -20 6 -30 5 -33 -3 -3 -8 -12 -4 -26 11 -24 24 -36 27
-46 12 -12 -19 -33 -10 -44 20 -5 17 -14 30 -20 30 -12 0 -51 -49 -51 -65 0
-6 -11 -22 -25 -35 -13 -12 -22 -27 -18 -33 3 -6 1 -7 -4 -4 -6 4 -23 -6 -39
-21 -16 -15 -48 -43 -71 -62 -37 -32 -43 -43 -58 -115 -22 -109 -18 -200 16
-334 82 -323 296 -611 521 -702 42 -18 75 -22 158 -23 101 -1 108 1 175 33 80
40 159 110 211 187 19 30 37 54 39 54 8 0 -8 -65 -26 -107 -12 -27 -17 -58
-15 -80 7 -50 -17 -93 -51 -93 -14 0 -23 -3 -20 -7 4 -3 -2 -13 -14 -21 -12
-8 -18 -20 -15 -29 5 -11 2 -13 -9 -9 -9 3 -14 2 -11 -3 3 -4 -1 -16 -8 -26
-10 -14 -15 -15 -21 -5 -6 9 -4 11 5 5 9 -5 11 -4 6 4 -4 6 -12 8 -19 4 -6 -3
-61 -8 -121 -9 -61 -2 -129 -5 -151 -7 -22 -2 -47 -1 -55 3 -102 50 -154 71
-200 81 -39 7 -64 20 -84 41 -37 39 -67 49 -120 42 -44 -6 -45 -6 -65 35 -24
46 -57 60 -97 42 -31 -14 -47 -14 -39 -1 3 6 -2 10 -12 10 -30 1 -52 25 -69
74 -11 32 -25 51 -45 62 -28 14 -30 14 -38 -8 -5 -13 -5 -33 0 -45 5 -14 4
-23 -4 -27 -7 -2 -4 -5 6 -5 23 -1 14 -17 -13 -24 -11 -3 -18 -1 -14 4 3 5 2
15 -3 22 -4 6 -8 18 -10 26 -2 17 -24 32 -35 25 -4 -3 -9 5 -9 18 -2 33 -3 39
-22 80 -9 21 -17 45 -17 55 0 27 -12 39 -51 56 l-37 15 -6 -30 c-3 -16 -10
-27 -15 -23 -6 3 -8 -4 -6 -16 3 -15 0 -19 -10 -15 -10 3 -16 -5 -21 -29 -3
-19 -10 -35 -15 -35 -5 0 -12 0 -16 0 -5 1 -6 12 -5 27 3 16 0 23 -7 19 -6 -4
-11 -15 -12 -24 0 -11 -3 -9 -10 7 -5 14 -7 31 -4 38 2 8 0 11 -5 8 -6 -3 -10
-3 -11 2 0 4 -2 26 -4 47 -1 24 -10 45 -21 53 -21 15 -38 17 -29 3 3 -5 2 -10
-4 -10 -6 0 -9 14 -7 32 2 17 -3 46 -11 65 -9 24 -11 39 -4 47 6 7 6 17 1 26
-5 8 -15 39 -21 69 -13 61 -47 101 -88 101 -42 1 -61 23 -73 88 -10 53 -15 63
-40 73 -16 6 -39 13 -51 14 -12 1 -25 3 -29 4 -4 0 -10 18 -13 38 -12 76 -15
81 -46 92 -17 6 -35 9 -39 6 -4 -2 -15 1 -24 8 -16 11 -16 15 -1 50 20 49 13
69 -36 109 -47 38 -49 61 -9 107 40 45 39 79 -5 131 -19 23 -35 51 -35 62 0
12 19 41 41 66 l42 44 -6 65 c-7 71 -4 81 47 148 28 36 34 54 40 116 7 74 7
74 61 125 53 49 64 74 46 103 -13 21 7 58 45 82 48 29 74 77 74 136 0 56 18
80 73 98 44 14 61 52 47 106 -16 58 -7 82 37 105 62 31 83 54 83 90 0 25 8 39
37 62 34 27 37 34 41 93 5 62 6 65 59 114 l54 51 -7 57 c-7 61 1 81 51 132 25
24 26 30 20 90 -7 61 -5 66 25 109 31 43 32 46 22 102 -11 63 -3 99 31 148 15
21 19 41 17 75 -2 25 -3 62 -2 81 1 19 2 108 2 198 0 127 -4 170 -15 193 -18
34 -55 147 -55 169 0 8 -11 36 -24 62 -23 46 -24 46 -35 22 -6 -13 -16 -24
-22 -24 -6 0 -9 -6 -6 -13 3 -8 -1 -14 -8 -14 -8 0 -11 7 -7 15 4 11 1 13 -8
7 -9 -5 -11 -4 -6 4 4 6 13 8 19 4 7 -4 6 0 -2 10 -7 9 -10 17 -6 17 4 0 2 7
-5 15 -6 8 -8 20 -4 27 6 10 5 10 -7 1 -12 -10 -14 -6 -14 22 1 37 15 62 15
27 0 -11 5 -24 11 -28 7 -4 9 0 5 12 -3 11 -13 51 -21 89 -9 39 -31 95 -49
125 -18 30 -37 67 -44 83 -6 15 -17 26 -24 25 -7 -2 -13 6 -13 17 0 11 -10 38
-22 60 -11 22 -34 65 -50 95 -33 63 -35 82 -10 86 29 4 167 114 200 159 87
119 167 327 181 471 3 27 5 49 6 49 1 0 4 13 6 28 3 19 1 26 -6 22 -6 -3 -7
-11 -4 -17 5 -7 2 -8 -5 -4 -9 6 -8 13 6 28 17 19 34 81 49 178 4 25 18 59 31
76 25 34 30 49 11 38 -10 -6 -10 -5 -1 7 7 8 10 26 7 40 -4 18 -3 20 4 10 8
-11 12 -7 16 20 9 61 6 70 -26 65 -15 -2 -28 0 -28 4 0 5 -14 29 -31 54 -31
47 -59 60 -59 29 0 -15 2 -16 10 -3 7 10 10 11 10 2 0 -13 -27 -28 -35 -20 -2
2 2 16 10 31 10 20 11 27 2 25 -7 -1 -27 6 -44 15 -25 13 -33 14 -33 5 0 -9
-3 -8 -10 2 -5 8 -10 11 -10 6 0 -6 -6 -1 -14 10 -9 11 -11 23 -6 30 6 6 2 17
-10 27 -17 14 -20 14 -20 2 0 -8 -7 -15 -16 -15 -11 0 -15 6 -11 20 3 11 3 20
1 20 -2 0 -51 -22 -108 -50 -83 -39 -259 -100 -291 -100 -3 0 15 25 40 55 25
31 45 61 45 68 1 7 9 30 20 52 22 45 25 65 9 65 -5 0 -7 -5 -3 -12 4 -7 3 -8
-5 -4 -6 4 -9 11 -6 16 3 5 1 11 -5 15 -5 3 -10 0 -10 -8 0 -7 -6 -14 -12 -15
-7 0 -30 -4 -50 -8 -32 -5 -38 -4 -38 10 0 10 4 14 10 11 6 -4 7 1 3 11 -4 12
-3 15 5 10 7 -4 12 -2 12 4 0 7 -8 9 -22 5 -18 -6 -20 -5 -11 5 7 8 8 21 3 34
-8 23 -7 97 3 113 3 5 9 24 12 42 4 23 1 33 -10 37 -14 6 -14 9 0 31 16 24 16
24 -4 14 -35 -19 -43 -13 -25 20 11 23 12 29 2 23 -10 -6 -10 -4 1 9 17 21 31
22 31 2 0 -14 3 -14 30 0 37 19 37 25 3 67 -35 41 -47 52 -101 85 -32 19 -46
23 -55 14 -8 -8 -8 -14 1 -23 9 -9 12 -9 12 0 0 7 4 12 9 12 5 0 8 -12 8 -27
0 -16 -2 -22 -4 -15 -4 10 -10 9 -25 -5 -21 -18 -21 -18 -9 5 6 12 10 22 9 23
-38 10 -48 7 -48 -11 0 -11 5 -20 11 -20 6 0 9 -10 7 -22 -3 -22 -7 -23 -93
-22 -71 0 -99 5 -135 23 l-45 22 -17 -22 c-16 -18 -19 -19 -32 -6 -13 13 -12
19 11 55 15 23 30 39 35 36 4 -3 8 -1 8 4 0 18 -69 4 -121 -25 -104 -56 -187
-148 -235 -261 l-25 -57 5 71 c13 171 137 346 305 433 125 64 206 84 340 83
121 -1 214 -29 306 -92 l44 -30 -10 32 c-9 32 -43 67 -65 68 -6 0 -24 10 -40
22 -15 13 -24 16 -19 8 6 -12 4 -11 -11 1 -10 9 -27 15 -36 14 -10 -2 -18 1
-18 7 0 6 -11 8 -25 6 -14 -3 -28 -1 -31 4 -3 5 -13 3 -22 -4 -9 -7 -13 -8 -9
-2 4 7 -3 14 -18 16 -16 3 -22 1 -18 -6 4 -6 -4 -2 -17 9 -14 12 -20 14 -15 5
8 -13 7 -13 -8 -1 -11 9 -17 10 -17 2 0 -6 -9 -2 -21 10 -16 16 -23 18 -34 9
-11 -9 -21 -8 -43 2 -16 8 -35 14 -43 12 -8 -1 -34 -5 -58 -9 -24 -3 -51 -10
-60 -14 -33 -17 -89 -31 -102 -27 -28 10 -79 14 -74 6 3 -4 -2 -11 -11 -14
-11 -4 -15 -2 -11 8 4 10 -1 13 -19 11 -17 -1 -21 1 -15 9 5 6 9 13 9 16 -3
20 17 50 32 50 12 0 17 5 14 13 -3 8 6 18 19 24 14 6 41 26 61 43 20 18 55 38
78 45 24 8 62 21 84 29 23 8 60 16 83 17 22 2 41 6 41 10 0 15 -49 64 -50 50
0 -9 -4 -10 -12 -3 -7 5 -40 15 -73 22 -33 6 -72 18 -87 26 -15 8 -29 11 -32
6z m-31 -712 c3 -5 1 -10 -4 -10 -6 0 -11 5 -11 10 0 6 2 10 4 10 3 0 8 -4 11
-10z m499 -18 c3 -5 -1 -9 -9 -9 -8 0 -12 4 -9 9 3 4 7 8 9 8 2 0 6 -4 9 -8z
m-13 -77 c0 -6 -9 -16 -21 -24 -20 -14 -21 -13 -9 13 12 25 31 32 30 11z m149
-436 c-6 -10 -13 -19 -16 -19 -2 0 0 8 5 19 6 10 7 22 3 26 -4 5 -1 5 6 1 9
-5 9 -12 2 -27z m-50 5 c0 -8 -19 -13 -24 -6 -3 5 1 9 9 9 8 0 15 -2 15 -3z
m-35 -14 c3 -5 1 -10 -4 -10 -6 0 -11 5 -11 10 0 6 2 10 4 10 3 0 8 -4 11 -10z
m55 -4 c0 -2 -7 -7 -16 -10 -8 -3 -12 -2 -9 4 6 10 25 14 25 6z m340 -77 c13
-9 12 -10 -2 -5 -10 3 -18 1 -18 -4 0 -6 -7 -10 -16 -10 -14 0 -14 3 -4 15 15
18 20 18 40 4z m-12 -42 c14 -10 16 -27 2 -27 -5 0 -9 5 -7 12 1 8 -9 12 -25
12 -15 -1 -25 3 -22 7 6 10 33 7 52 -4z m12 -49 c0 -5 7 -8 16 -8 8 0 12 5 9
10 -10 16 15 12 31 -5 14 -13 13 -15 -5 -15 -12 0 -21 -4 -21 -9 0 -5 10 -7
23 -5 20 4 21 4 2 -5 -14 -6 -23 -5 -30 4 -5 6 -12 12 -15 11 -7 -1 -60 40
-60 47 0 3 11 0 25 -6 14 -7 25 -15 25 -19z m-172 -75 c-8 -10 -7 -12 6 -7 11
4 16 1 17 -12 0 -17 1 -17 7 -2 5 11 12 14 21 9 10 -7 8 -12 -10 -25 -13 -8
-25 -12 -29 -8 -3 4 -12 7 -20 7 -10 0 -14 8 -13 23 2 15 -1 21 -9 16 -6 -4
-8 -3 -5 2 3 5 15 10 26 10 15 0 17 -3 9 -13z m-511 -32 c0 -11 -5 -18 -9 -15
-4 3 -5 11 -1 19 7 21 12 19 10 -4z m986 -15 c4 -10 1 -13 -8 -9 -8 3 -12 9
-9 14 7 12 11 11 17 -5z m-443 -41 c0 -2 -7 -5 -15 -9 -9 -3 -15 0 -15 9 0 9
6 12 15 9 8 -4 15 -7 15 -9z m-469 -28 c-13 -13 -26 -3 -16 12 3 6 11 8 17 5
6 -4 6 -10 -1 -17z m283 -59 c-3 -4 -1 -8 4 -8 5 0 12 -13 14 -29 2 -17 1 -28
-3 -25 -4 2 -10 -2 -13 -8 -3 -7 -3 1 0 19 4 24 1 34 -17 47 -22 15 -22 15 -1
13 11 0 18 -5 16 -9z m13 -263 c0 -8 -4 -12 -9 -9 -5 3 -6 10 -3 15 9 13 12
11 12 -6z m-1333 -126 c-4 -7 0 -9 12 -6 47 13 80 16 93 8 10 -6 10 -10 1 -16
-8 -5 -5 -11 9 -22 25 -17 27 -36 6 -53 -18 -15 -52 -4 -66 22 -9 16 -8 19 2
13 7 -5 4 3 -7 17 -10 14 -23 24 -27 21 -13 -8 -39 6 -32 17 3 5 8 10 11 10 3
0 2 -5 -2 -11z m-208 -14 c18 -14 18 -14 -8 -15 -18 0 -28 5 -28 15 0 19 11
19 36 0z m103 -12 c0 -16 -3 -23 -5 -18 -2 6 -21 10 -42 8 l-37 -2 35 9 c19 4
36 13 38 19 7 20 12 12 11 -16z m81 22 c0 -2 -10 -9 -22 -15 -22 -11 -22 -10
-4 4 21 17 26 19 26 11z m-50 -20 c0 -8 -2 -15 -4 -15 -2 0 -6 7 -10 15 -3 8
-1 15 4 15 6 0 10 -7 10 -15z m-177 -15 c4 -15 -2 -24 -23 -35 -15 -8 -31 -11
-35 -7 -5 4 -5 2 -2 -5 9 -15 -21 -46 -38 -39 -10 3 -10 -3 -2 -30 9 -29 8
-36 -8 -48 -10 -7 -27 -11 -38 -8 -15 4 -16 7 -5 14 9 7 7 8 -9 5 -15 -3 -23
0 -23 8 0 7 8 12 17 11 10 0 18 5 19 12 3 25 6 27 13 8 5 -13 10 -16 14 -9 4
6 0 19 -9 27 -12 12 -12 16 -2 17 9 0 9 2 1 5 -18 8 -4 34 18 34 10 0 19 5 19
10 0 6 9 10 20 10 11 0 20 7 20 15 0 18 20 20 20 3 0 -7 5 -5 11 5 13 22 15
21 22 -3z m635 -43 c-7 -12 -13 -28 -14 -35 -4 -25 -35 -50 -55 -45 -15 4 -18
11 -13 27 4 11 12 24 18 28 10 7 -6 12 -26 9 -5 0 -8 2 -8 5 0 9 27 34 32 29
2 -2 17 -1 34 4 38 11 47 5 32 -22z m-883 -6 c-3 -2 -16 -6 -28 -8 -15 -2 -18
0 -9 5 14 9 45 12 37 3z m-59 -20 c-1 -18 22 -22 44 -7 12 8 13 8 3 -4 -7 -8
-13 -18 -13 -23 0 -4 6 -5 13 -1 6 4 8 3 4 -1 -4 -5 -15 -10 -23 -11 -27 -4
-47 -14 -41 -21 4 -3 2 -12 -5 -20 -6 -7 -8 -16 -4 -20 3 -3 6 -1 6 5 0 7 4
12 8 12 5 0 9 -6 9 -13 0 -8 -13 -13 -34 -13 -18 0 -33 4 -33 8 0 4 -5 8 -11
8 -5 0 -7 -5 -3 -11 7 -12 -18 1 -48 24 -19 15 -25 33 -8 22 6 -3 10 -1 10 4
0 6 -4 11 -10 11 -5 0 -10 5 -10 11 0 19 29 40 53 38 12 -1 33 2 46 8 34 14
48 12 47 -6z m469 0 c3 -5 1 -12 -5 -16 -5 -3 -10 1 -10 9 0 18 6 21 15 7z
m610 -7 c21 -14 22 -18 10 -30 -15 -15 -39 -19 -31 -5 9 14 -5 42 -17 34 -6
-3 -7 -1 -3 5 9 15 12 15 41 -4z m-370 -24 c-3 -5 -14 -10 -23 -10 -15 0 -15
2 -2 10 20 13 33 13 25 0z m-10 -28 c5 0 11 -6 13 -14 2 -9 0 -8 -7 2 -7 10
-11 11 -11 3 0 -7 -5 -13 -12 -13 -6 0 -8 3 -5 7 4 3 -1 12 -11 20 -16 13 -15
13 3 5 11 -6 24 -10 30 -10z m-1098 0 c8 -5 9 -13 3 -22 -6 -10 -3 -21 8 -35
17 -20 17 -20 -4 -2 -11 9 -24 14 -27 11 -9 -10 -20 23 -13 41 6 17 15 19 33
7z m107 -23 c-10 -16 -24 -9 -24 12 0 18 2 19 15 9 8 -7 12 -16 9 -21z m69
-16 c-3 -7 -13 -13 -23 -13 -11 0 -22 -5 -25 -10 -4 -6 -3 -10 2 -9 19 3 34
-2 28 -10 -3 -5 6 -18 20 -29 24 -19 36 -40 16 -27 -5 3 -12 1 -16 -5 -13 -21
-32 -10 -29 17 2 20 -5 35 -25 53 -15 14 -25 24 -23 23 9 -5 32 19 27 28 -3 4
4 6 15 4 11 -2 20 2 20 8 0 8 3 7 9 -2 5 -8 7 -20 4 -28z m1277 22 c0 -8 -4
-15 -10 -15 -5 0 -10 7 -10 15 0 8 5 15 10 15 6 0 10 -7 10 -15z m-460 -5 c0
-5 -2 -10 -4 -10 -3 0 -8 5 -11 10 -3 6 -1 10 4 10 6 0 11 -4 11 -10z m-713
-36 c-9 -9 -28 6 -21 18 4 6 10 6 17 -1 6 -6 8 -13 4 -17z m-412 -14 c-17 -6
-17 -7 -1 -13 9 -4 14 -11 11 -17 -3 -6 1 -7 9 -4 9 3 16 1 16 -6 0 -6 5 -8
13 -4 9 6 9 5 1 -7 -9 -11 -9 -17 1 -26 7 -6 16 -9 19 -5 4 3 4 -1 1 -10 -7
-17 -55 -54 -55 -42 0 4 -8 0 -17 -7 -10 -7 -15 -9 -10 -4 4 4 1 18 -7 31 -14
21 -12 34 6 34 4 0 7 -3 7 -7 -1 -5 -1 -17 1 -28 l1 -20 9 20 c8 18 9 18 9 2
1 -10 6 -15 12 -12 7 5 4 14 -7 26 -10 11 -12 19 -6 19 7 0 12 7 12 15 0 8 -7
15 -15 15 -8 0 -15 -5 -15 -11 0 -5 5 -7 12 -3 7 5 8 3 3 -5 -13 -22 -28 4
-16 27 8 15 7 21 -4 26 -8 3 -17 1 -20 -5 -4 -5 -10 -7 -15 -4 -4 3 -10 -1
-13 -9 -4 -10 0 -12 14 -9 25 7 26 -23 2 -50 -10 -11 -13 -17 -6 -14 6 4 14 3
18 -3 4 -6 -8 -10 -30 -10 -22 0 -34 4 -30 10 4 6 11 7 17 4 6 -4 6 2 -1 15
-7 11 -16 21 -22 21 -6 0 -7 5 -4 10 3 6 -4 14 -17 19 -13 6 -17 10 -9 10 8 1
24 -7 35 -16 12 -10 18 -14 14 -9 -4 5 -3 15 4 23 9 11 7 12 -8 8 -10 -3 -8 0
6 7 14 7 28 17 32 23 5 6 8 4 8 -5 0 -12 3 -11 17 2 9 10 21 14 27 11 5 -4 1
-9 -9 -13z m211 -3 c1 -9 -2 -15 -7 -11 -5 3 -7 10 -4 15 4 5 2 9 -4 9 -5 0
-15 -8 -20 -17 -6 -10 -11 -13 -11 -7 0 14 22 35 34 31 5 -2 10 -11 12 -20z
m124 -7 c-13 -25 -30 -26 -30 -2 0 13 2 14 9 4 7 -11 9 -11 14 2 4 9 9 16 12
16 3 0 1 -9 -5 -20z m-170 -20 c8 -5 11 -10 5 -10 -5 0 5 -8 23 -16 17 -9 32
-23 32 -31 0 -8 -5 -11 -12 -7 -8 5 -9 2 -5 -9 5 -12 1 -17 -13 -17 -13 0 -20
10 -25 33 -4 17 -14 40 -23 50 -16 18 -6 23 18 7z m-350 -31 c0 -5 -5 -7 -12
-3 -7 4 -8 3 -4 -4 4 -6 13 -9 21 -6 8 4 12 10 9 15 -3 5 0 9 5 9 6 0 11 -5
11 -11 0 -8 6 -7 17 2 9 8 14 9 10 3 -7 -12 20 -29 38 -25 6 1 4 -3 -2 -10 -7
-7 -13 -21 -13 -31 0 -10 -6 -18 -14 -18 -18 0 -28 -27 -13 -34 7 -4 2 -4 -11
-2 -12 2 -20 0 -16 -5 3 -5 1 -9 -5 -9 -5 0 -12 6 -15 13 -3 9 -9 7 -19 -6
-18 -21 -57 -31 -57 -14 0 8 -3 8 -9 -2 -11 -18 -51 3 -51 27 0 15 2 15 10 2
6 -9 10 -10 10 -3 0 6 -5 15 -10 18 -15 9 9 37 25 31 7 -2 22 2 33 9 10 8 23
11 27 7 5 -4 5 -1 1 5 -4 7 -2 22 4 33 11 21 30 27 30 9z m318 -18 c1 -1 5 -1
8 0 8 1 24 -22 24 -34 0 -5 -7 -1 -16 7 -21 22 -40 20 -23 -1 13 -16 12 -17
-3 -4 -10 7 -18 10 -18 5 0 -4 -5 -3 -11 3 -21 21 2 35 39 24z m-444 -29 c2
-4 -3 -16 -11 -27 -15 -19 -15 -19 -9 -1 5 15 4 17 -7 7 -11 -9 -17 -7 -28 6
-9 11 -10 14 -1 9 6 -4 12 -2 12 3 0 12 36 15 44 3z m-64 -28 c0 -8 -19 -13
-24 -6 -3 5 1 9 9 9 8 0 15 -2 15 -3z m251 -76 c18 -11 19 -15 6 -15 -9 0 -17
5 -17 11 0 6 -4 6 -8 -2 -5 -7 -19 -10 -33 -8 -13 3 -28 5 -33 5 -5 1 -4 7 2
14 14 17 54 14 83 -5z m-119 -20 c-2 -10 -6 -18 -7 -18 -1 0 -5 8 -7 18 -3 11
0 19 7 19 7 0 10 -8 7 -19z m33 -28 c3 -6 -1 -7 -9 -4 -18 7 -21 14 -7 14 6 0
13 -4 16 -10z m-6 -64 c9 -11 9 -16 -1 -22 -7 -4 -10 -4 -6 1 4 4 3 14 -3 22
-6 7 -9 13 -6 13 2 0 10 -6 16 -14z m17 -44 c0 -10 -6 -19 -13 -19 -8 0 -9 6
-2 19 5 10 11 18 12 18 2 0 3 -8 3 -18z m-29 -72 c1 -11 -2 -22 -6 -24 -6 -4
-7 26 -2 42 3 8 7 -1 8 -18z m2998 -600 c3 -5 1 -10 -4 -10 -6 0 -11 5 -11 10
0 6 2 10 4 10 3 0 8 -4 11 -10z m-2156 -302 c-8 -14 -14 -18 -17 -10 -4 13 17
46 25 38 3 -2 -1 -15 -8 -28z m279 -30 c-2 -7 4 -12 12 -13 8 0 16 -10 18 -23
2 -12 8 -20 13 -17 5 3 6 0 3 -8 -2 -7 -1 -25 5 -38 9 -24 -8 -66 -21 -53 -4
3 -9 0 -14 -7 -4 -7 -3 -10 4 -5 7 4 10 -2 8 -16 -4 -36 -17 -58 -30 -51 -8 4
-8 2 1 -7 6 -7 9 -18 6 -26 -3 -9 2 -12 16 -9 26 5 27 -2 3 -23 -10 -10 -11
-12 -2 -7 13 9 13 8 2 -6 -7 -10 -21 -15 -32 -12 -23 6 -23 7 -9 36 8 15 3 13
-16 -8 -21 -25 -25 -26 -20 -9 3 13 -1 26 -10 34 -12 10 -14 27 -10 83 3 40
10 74 14 77 4 3 7 15 6 27 -1 12 2 20 6 18 11 -7 32 23 26 39 -3 7 0 19 6 25
14 14 18 14 15 -1z m-328 -52 c0 -3 -4 -8 -10 -11 -5 -3 -10 -1 -10 4 0 6 5
11 10 11 6 0 10 -2 10 -4z m384 -132 c-1 -14 -6 -29 -10 -32 -4 -4 -4 1 -1 11
4 9 2 17 -5 17 -7 0 -6 5 2 15 17 20 18 19 14 -11z m36 -24 c0 -5 -5 -10 -11
-10 -5 0 -7 5 -4 10 3 6 8 10 11 10 2 0 4 -4 4 -10z m-158 -92 c-7 -7 -12 -8
-12 -2 0 14 12 26 19 19 2 -3 -1 -11 -7 -17z m122 -16 c3 -5 -1 -9 -9 -9 -8 0
-12 4 -9 9 3 4 7 8 9 8 2 0 6 -4 9 -8z m-391 -59 c-4 -10 -2 -14 5 -9 6 3 13
2 16 -3 7 -11 -13 -9 -31 2 -18 11 -16 38 1 31 9 -3 12 -12 9 -21z m-59 -235
c-6 -10 -4 -10 7 0 16 15 33 16 23 1 -4 -7 1 -7 16 1 20 11 21 10 11 -9 -15
-28 -14 -39 2 -17 13 17 14 17 30 -7 13 -20 14 -28 4 -33 -6 -4 -9 -4 -5 1 4
4 3 14 -4 22 -9 11 -15 10 -37 -9 -14 -13 -20 -16 -14 -8 7 9 8 21 4 29 -6 9
-10 6 -14 -10 -5 -19 -9 -21 -19 -11 -14 14 -32 16 -23 3 3 -5 1 -13 -5 -16
-6 -4 -9 -1 -8 7 2 7 -3 12 -9 11 -10 -2 -10 3 -1 22 6 13 14 22 19 20 4 -3
10 -1 14 5 9 15 18 12 9 -2z m-233 -61 c-10 -9 -11 -8 -5 6 3 10 9 15 12 12 3
-3 0 -11 -7 -18z m439 -127 c0 -16 5 -32 10 -35 15 -9 12 -52 -3 -52 -7 0 -13
7 -14 16 0 9 -3 38 -7 64 -3 30 -2 46 4 42 6 -3 10 -19 10 -35z m-500 -66 c0
-8 -19 -13 -24 -6 -3 5 1 9 9 9 8 0 15 -2 15 -3z m-73 -29 c0 -8 -4 -12 -9 -9
-5 3 -6 10 -3 15 9 13 12 11 12 -6z m148 3 c5 4 5 2 2 -5 -4 -6 -15 -10 -25
-8 -9 2 -21 4 -27 4 -5 1 -3 5 5 11 9 5 19 5 26 0 6 -6 15 -6 19 -2z m492 -4
c-3 -3 -12 -4 -19 -1 -8 3 -5 6 6 6 11 1 17 -2 13 -5z m-42 -41 c-7 -19 19
-27 44 -13 25 13 25 11 8 -22 -11 -22 -14 -23 -26 -10 -10 10 -26 13 -57 8
-36 -5 -44 -3 -44 11 0 21 26 39 56 39 16 0 23 -4 19 -13z m145 -53 c-8 -5
-22 -10 -30 -10 -13 0 -13 1 0 10 8 5 22 10 30 10 13 0 13 -1 0 -10z m-126
-40 c14 0 37 5 52 10 24 9 25 9 14 -5 -7 -8 -21 -15 -32 -15 -11 0 -31 -9 -45
-20 -29 -23 -43 -19 -23 5 10 12 10 19 2 27 -7 7 -12 19 -11 28 0 9 4 6 9 -7
6 -15 18 -23 34 -23z m-989 10 c3 -5 1 -10 -4 -10 -6 0 -11 5 -11 10 0 6 2 10
4 10 3 0 8 -4 11 -10z m215 -35 c0 -7 -30 -13 -34 -7 -3 4 4 9 15 9 10 1 19 0
19 -2z m2241 -27 c-11 -10 -13 -10 -7 0 4 6 2 12 -4 12 -6 0 -8 5 -4 11 4 8 9
8 17 0 8 -8 7 -14 -2 -23z m-1561 -13 c10 -12 10 -15 -4 -15 -9 0 -16 7 -16
15 0 8 2 15 4 15 2 0 9 -7 16 -15z m1517 -55 c-12 -17 -16 -18 -20 -6 -4 9 -1
15 6 13 7 -1 11 6 10 17 -1 12 2 15 9 8 7 -7 6 -17 -5 -32z m-1520 11 c0 -11
-5 -18 -9 -15 -4 3 -5 11 -1 19 7 21 12 19 10 -4z m1488 -50 c-3 -6 -11 -11
-16 -11 -5 0 -4 6 3 14 14 16 24 13 13 -3z m-1375 -56 c5 3 12 0 16 -6 4 -8 3
-9 -4 -5 -7 4 -12 1 -12 -6 0 -9 -3 -9 -10 2 -7 11 -10 7 -10 -17 0 -18 -3
-32 -7 -32 -5 1 -15 1 -23 0 -13 -1 -13 -2 0 -11 8 -5 12 -10 7 -10 -4 0 0
-11 9 -25 9 -14 15 -26 13 -26 -18 -6 -47 -4 -43 3 3 4 11 5 17 1 7 -3 4 3 -7
15 -10 12 -24 19 -30 15 -6 -3 -8 -3 -4 2 4 4 2 15 -4 24 -7 9 -2 7 11 -4 l24
-20 -7 23 c-6 17 0 31 21 55 15 18 30 29 31 25 2 -4 8 -6 12 -3z m1344 -1 c3
-8 2 -12 -4 -9 -6 3 -10 10 -10 16 0 14 7 11 14 -7z m-554 3 c0 -2 -12 -14
-27 -28 l-28 -24 24 28 c23 25 31 32 31 24z m530 -32 c0 -19 -5 -35 -11 -35
-5 0 -7 5 -3 12 4 7 3 8 -4 4 -7 -4 -12 -1 -12 9 0 9 5 13 10 10 6 -3 10 3 10
14 0 12 2 21 5 21 3 0 5 -16 5 -35z m-1323 -27 c-3 -8 -6 -5 -6 6 -1 11 2 17
5 13 3 -3 4 -12 1 -19z m1296 -18 c0 -3 3 -15 8 -27 7 -18 5 -21 -9 -16 -14 6
-15 4 -4 -9 10 -13 10 -18 1 -24 -8 -4 -9 -3 -5 4 4 7 3 12 -3 12 -6 0 -15 -9
-21 -20 -6 -11 -16 -20 -22 -20 -7 0 -6 6 2 18 7 9 1 5 -13 -10 -19 -20 -27
-24 -37 -15 -8 8 -8 5 1 -10 l14 -23 12 23 c9 17 12 18 13 5 0 -9 -7 -24 -16
-32 -14 -15 -11 -20 9 -17 5 1 6 -3 2 -8 -3 -6 -12 -8 -20 -4 -8 3 -15 0 -15
-6 0 -6 -3 -10 -7 -10 -21 3 -33 -2 -33 -15 0 -8 -5 -18 -12 -22 -8 -5 -9 -2
-5 9 4 11 1 17 -9 17 -8 0 -13 -4 -9 -9 3 -5 1 -12 -4 -15 -5 -4 -8 2 -6 11 2
10 4 22 4 26 1 5 6 5 13 1 7 -5 9 -2 6 7 -3 8 1 24 9 34 16 20 16 20 9 0 -5
-13 -4 -17 3 -10 5 6 11 19 13 30 4 23 20 45 30 39 4 -2 9 5 13 16 4 11 11 18
16 15 5 -4 9 1 9 9 0 18 33 38 46 28 5 -4 6 -3 2 2 -3 5 -4 16 -1 25 4 13 2
13 -7 -1 -6 -10 -16 -18 -21 -18 -6 0 -3 7 5 16 9 8 16 21 16 27 0 7 6 3 12
-8 7 -11 11 -22 11 -25z m-1229 -5 c3 -8 1 -15 -4 -15 -6 0 -10 7 -10 15 0 8
2 15 4 15 2 0 6 -7 10 -15z m1256 -5 c0 -5 -2 -10 -4 -10 -3 0 -8 5 -11 10 -3
6 -1 10 4 10 6 0 11 -4 11 -10z m-1425 -40 c-3 -5 1 -10 9 -10 9 0 16 -5 16
-11 0 -5 -4 -8 -8 -5 -5 3 -7 -19 -4 -47 3 -42 0 -56 -14 -67 -16 -14 -16 -13
-5 8 8 14 8 28 2 40 -19 35 -15 102 5 102 3 0 2 -4 -1 -10z m152 -25 c0 -8 -6
-16 -13 -19 -7 -3 -10 2 -7 15 6 22 20 26 20 4z m1045 -197 c-8 -8 -9 -4 -5
13 4 13 8 18 11 10 2 -7 -1 -18 -6 -23z m-985 -630 c-3 -8 -6 -5 -6 6 -1 11 2
17 5 13 3 -3 4 -12 1 -19z m-171 -48 c-1 -35 -16 -41 -16 -7 0 20 7 37 15 37
1 0 2 -13 1 -30z m189 -116 c-1 -58 -5 -108 -9 -111 -3 -3 0 -13 6 -22 10 -13
10 -14 -2 -3 -19 17 -15 242 5 242 1 0 2 -47 0 -106z m-38 14 c-3 -8 -6 -5 -6
6 -1 11 2 17 5 13 3 -3 4 -12 1 -19z m-13 -217 c3 -4 -3 -16 -14 -26 -19 -17
-19 -17 -7 9 14 29 14 29 21 17z m36 5 c0 -3 -4 -8 -10 -11 -5 -3 -10 -1 -10
4 0 6 5 11 10 11 6 0 10 -2 10 -4z m33 -21 c-3 -9 -8 -14 -10 -11 -3 3 -2 9 2
15 9 16 15 13 8 -4z m3277 -175 c0 -5 -7 -10 -15 -10 -8 0 -15 5 -15 10 0 6 7
10 15 10 8 0 15 -4 15 -10z m-3376 -155 c3 -8 -3 -19 -13 -24 -15 -9 -18 -7
-16 12 3 27 3 27 14 27 5 0 11 -7 15 -15z m2906 -98 c0 -6 -9 -2 -19 7 -11 10
-25 15 -30 11 -12 -7 -13 -3 -5 18 5 13 9 12 30 -6 13 -11 24 -25 24 -30z
m-71 21 c-9 -16 -14 -19 -17 -9 -3 9 -6 10 -12 2 -3 -7 -14 -9 -24 -5 -23 9
-1 24 26 19 10 -2 18 0 18 6 0 5 5 9 10 9 7 0 6 -8 -1 -22z m41 -28 c0 -10 5
-22 12 -26 6 -4 8 -3 5 2 -3 6 2 15 12 21 14 9 18 8 18 -3 0 -8 -4 -14 -9 -14
-4 0 -7 -3 -7 -7 1 -5 0 -11 -1 -15 -4 -13 -7 -27 -9 -39 0 -5 -6 -7 -12 -3
-6 3 -7 9 -3 13 5 3 10 13 12 21 1 10 -3 8 -13 -5 -9 -11 -21 -20 -27 -20 -6
0 -14 -9 -19 -20 -7 -17 -8 -18 -10 -2 -1 9 -3 20 -4 25 -2 4 -6 17 -10 30 -6
19 -10 21 -24 10 -14 -11 -14 -11 -4 3 7 9 9 20 5 24 -4 5 -1 5 6 1 6 -4 12
-2 12 4 0 6 4 9 9 5 5 -3 12 -2 15 3 2 4 14 8 25 9 14 1 21 -4 21 -17z m-2900
0 c0 -5 -2 -10 -4 -10 -3 0 -8 5 -11 10 -3 6 -1 10 4 10 6 0 11 -4 11 -10z
m45 -38 c-3 -3 -11 0 -18 7 -9 10 -8 11 6 5 10 -3 15 -9 12 -12z m3098 -87
c32 -8 72 -25 88 -37 33 -25 109 -115 109 -130 0 -5 -29 12 -65 38 -85 60
-153 85 -232 86 -88 0 -144 -28 -191 -100 -37 -55 -37 -56 -37 -161 0 -87 4
-114 22 -152 30 -66 87 -125 140 -145 39 -15 52 -16 91 -5 55 14 77 33 104 85
24 47 26 134 3 169 -23 35 -84 61 -117 48 -28 -11 -68 -4 -68 11 0 21 50 58
80 58 35 0 88 -33 120 -73 43 -54 80 -233 52 -251 -4 -2 -9 -22 -10 -43 -5
-81 -28 -112 -81 -114 -20 -1 -28 -3 -18 -6 9 -2 17 -9 17 -14 0 -6 -4 -7 -10
-4 -5 3 -10 0 -10 -7 0 -21 -58 -21 -93 1 -18 10 -48 24 -67 30 -163 52 -264
356 -177 533 35 72 90 134 141 160 81 42 121 46 209 23z m-2588 -315 c-3 -5
-1 -10 6 -10 16 0 3 -13 -16 -16 -12 -2 -12 2 -5 17 6 10 13 19 16 19 3 0 2
-4 -1 -10z m2505 -69 c16 -30 12 -41 -13 -41 -28 0 -47 17 -47 42 0 25 46 24
60 -1z m-2524 -28 c-3 -4 -6 0 -6 8 0 11 -2 12 -9 1 -7 -11 -9 -10 -14 3 -4 9
-3 13 3 10 6 -3 10 0 10 7 0 8 5 6 11 -5 6 -10 8 -21 5 -24z m1215 -330 c13
-16 12 -17 -3 -4 -17 13 -22 21 -14 21 2 0 10 -8 17 -17z m22 -53 c3 -11 1
-18 -4 -14 -5 3 -9 12 -9 20 0 20 7 17 13 -6z m302 -158 c9 -6 17 -42 10 -42
-1 0 -10 11 -19 25 -16 24 -12 32 9 17z m-1351 -168 c3 -8 2 -12 -4 -9 -6 3
-10 10 -10 16 0 14 7 11 14 -7z m1806 -18 c0 -2 -7 -7 -16 -10 -8 -3 -12 -2
-9 4 6 10 25 14 25 6z m-965 -84 c-3 -3 -11 0 -18 7 -9 10 -8 11 6 5 10 -3 15
-9 12 -12z m55 4 c0 -2 -6 -9 -14 -15 -11 -9 -16 -9 -22 0 -4 7 -3 9 4 5 6 -3
13 -2 17 4 6 10 15 14 15 6z m-115 -38 c5 4 5 1 1 -6 -6 -10 -11 -10 -22 -1
-8 6 -14 14 -14 16 0 3 6 0 13 -6 8 -6 18 -7 22 -3z m65 -76 c-5 -2 -6 -11 -3
-20 6 -14 5 -15 -9 -2 -9 8 -12 17 -6 19 5 1 1 12 -9 24 l-18 21 27 -20 c14
-10 22 -20 18 -22z m15 28 c3 -6 -1 -7 -9 -4 -18 7 -21 14 -7 14 6 0 13 -4 16
-10z m-629 -182 c4 -7 4 -10 -1 -6 -4 4 -15 2 -24 -5 -14 -11 -14 -10 -2 6 16
20 18 21 27 5z m57 -35 c-7 -2 -13 -12 -13 -20 0 -9 -3 -14 -6 -10 -10 10 4
37 18 36 10 0 10 -2 1 -6z m2327 -29 c0 -8 -19 -13 -24 -6 -3 5 1 9 9 9 8 0
15 -2 15 -3z m-2331 -28 c29 -16 36 -16 45 -4 6 7 17 13 25 13 16 0 24 -32 10
-41 -5 -3 -7 -10 -3 -15 3 -5 0 -8 -8 -7 -7 2 -12 -3 -10 -11 2 -8 -3 -11 -12
-8 -9 4 -22 -1 -31 -9 -9 -9 -15 -11 -15 -4 0 6 -5 8 -12 3 -7 -4 -22 -6 -33
-4 -11 2 -17 0 -13 -5 4 -4 3 -13 -3 -20 -15 -18 22 -33 69 -28 19 2 30 -1 27
-6 -4 -6 3 -6 18 -1 14 6 27 7 30 4 3 -3 5 9 5 25 -1 23 -5 29 -17 25 -13 -4
-13 -3 -2 5 7 5 22 7 34 4 15 -4 18 -2 12 9 -5 8 1 6 12 -4 14 -12 23 -14 26
-7 3 6 4 5 3 -2 -2 -7 -9 -12 -15 -11 -6 2 -11 -3 -11 -10 0 -9 -3 -8 -9 2 -7
11 -10 9 -16 -9 -4 -13 -3 -25 4 -30 17 -10 3 -38 -22 -47 -31 -10 -41 -10
-49 2 -5 7 -8 6 -8 -1 0 -6 -12 -10 -27 -8 -16 1 -35 2 -44 3 -9 1 -28 13 -43
28 -26 25 -26 28 -10 40 10 7 14 13 9 13 -4 0 0 9 11 21 18 20 18 22 1 34 -18
13 -24 31 -7 20 6 -3 7 1 4 9 -10 26 -22 18 -20 -14 1 -16 0 -27 -3 -25 -2 3
-10 0 -17 -6 -8 -7 -14 -6 -20 2 -4 7 -3 9 3 6 14 -9 23 16 18 44 -2 12 -2 19
2 15 3 -3 12 -1 18 4 9 8 14 6 19 -6 5 -13 9 -14 21 -4 11 9 12 16 5 26 -15
17 5 13 49 -10z m382 9 c1 -16 -16 -16 -36 -2 -17 13 -16 14 9 13 14 -1 27 -6
27 -11z m-664 -30 c-9 -7 -13 -16 -9 -20 4 -5 1 -5 -5 -1 -20 11 -16 37 4 29
12 -5 14 -3 8 7 -6 9 -4 11 5 5 10 -6 10 -11 -3 -20z m76 -28 c-12 -12 -19
-15 -21 -7 -3 7 2 16 9 21 10 6 10 9 2 9 -7 0 -10 7 -6 16 6 15 7 15 20 -1 11
-16 10 -21 -4 -38z m596 -16 c6 -10 20 -21 31 -24 11 -3 18 -1 15 3 -3 5 7 7
22 5 70 -9 79 -33 22 -57 -35 -15 -39 -15 -58 3 -11 10 -25 19 -32 19 -6 0 -9
8 -6 20 3 11 1 20 -5 20 -5 0 -7 4 -4 9 4 5 0 12 -6 14 -10 4 -10 6 -1 6 7 1
17 -7 22 -18z m111 9 c12 -8 11 -10 -7 -10 -13 0 -23 5 -23 10 0 13 11 13 30
0z m-70 -6 c0 -8 -19 -13 -24 -6 -3 5 1 9 9 9 8 0 15 -2 15 -3z m-251 -128 c0
-7 -2 -6 -6 2 -2 6 -8 10 -12 8 -4 -3 -8 1 -8 9 0 11 4 12 14 4 7 -6 13 -17
12 -23z m565 -82 c3 -8 2 -12 -4 -9 -6 3 -10 10 -10 16 0 14 7 11 14 -7z
m-561 -93 c7 -7 7 -11 1 -11 -6 0 -14 3 -17 6 -9 10 -97 10 -97 1 0 -5 -4 -6
-9 -3 -5 4 -11 1 -13 -6 -3 -9 -6 -9 -12 0 -4 8 1 15 15 20 30 11 118 7 132
-7z m-35 -172 c-2 -6 3 -14 10 -16 6 -3 10 1 9 9 -2 7 -2 10 0 6 3 -5 11 -8
19 -8 8 0 14 -7 14 -16 0 -9 5 -12 13 -8 8 5 7 2 -2 -9 -13 -16 -16 -16 -39
-1 -13 9 -22 12 -18 6 3 -5 -8 -12 -24 -14 -27 -4 -30 -2 -24 16 6 20 6 20 -9
2 -17 -24 -42 -29 -57 -11 -7 9 -6 16 7 26 11 9 14 10 9 2 -4 -7 -3 -13 3 -13
5 0 12 4 16 9 6 10 37 7 57 -5 7 -4 8 -3 4 4 -4 7 -4 17 -1 22 8 13 16 13 13
-1z"/>
<path d="M2524 7379 c-5 -8 -3 -9 6 -4 7 4 16 2 22 -6 8 -12 9 -12 6 0 -6 20
-24 25 -34 10z"/>
<path d="M1841 7247 c-6 -6 -11 -16 -11 -21 0 -6 5 -4 10 4 8 12 10 10 10 -10
1 -25 1 -25 10 -2 5 12 12 22 14 22 3 0 3 -6 0 -13 -3 -8 2 -14 10 -14 11 0
13 5 6 17 -12 23 -35 31 -49 17z"/>
<path d="M1250 7076 c0 -2 7 -7 16 -10 8 -3 12 -2 9 4 -6 10 -25 14 -25 6z"/>
<path d="M2303 5685 c0 -8 4 -12 9 -9 5 3 6 10 3 15 -9 13 -12 11 -12 -6z"/>
<path d="M3396 4428 c3 -5 10 -6 15 -3 13 9 11 12 -6 12 -8 0 -12 -4 -9 -9z"/>
<path d="M3325 4330 c2 -12 7 -25 10 -28 3 -3 4 4 2 16 -2 12 -6 24 -10 28 -3
4 -4 -4 -2 -16z"/>
<path d="M3286 4297 c3 -10 9 -15 12 -12 3 3 0 11 -7 18 -10 9 -11 8 -5 -6z"/>
<path d="M5020 2716 c0 -8 4 -17 9 -20 5 -4 7 3 4 14 -6 23 -13 26 -13 6z"/>
<path d="M3255 479 c-4 -6 -5 -12 -2 -15 2 -3 7 2 10 11 7 17 1 20 -8 4z"/>
<path d="M1372 9168 c6 -15 17 -28 26 -28 8 0 13 -3 9 -6 -3 -3 8 -27 24 -52
16 -25 29 -51 29 -58 0 -7 6 -15 13 -17 9 -4 9 -8 -2 -15 -11 -8 -10 -12 5
-21 13 -8 15 -14 7 -17 -7 -3 -9 -12 -6 -21 4 -11 2 -14 -5 -9 -7 4 -12 2 -12
-3 0 -16 -63 -13 -86 4 -13 10 -15 14 -5 15 20 0 8 10 -18 15 -11 2 -21 -1
-21 -7 0 -7 -7 -5 -17 4 -13 11 -42 15 -108 15 -80 0 -84 -1 -41 -8 28 -4 53
-6 58 -3 4 3 8 1 8 -3 0 -5 24 -18 53 -28 79 -28 154 -80 235 -163 91 -93 128
-164 131 -249 1 -35 0 -63 -2 -63 -2 0 -20 26 -40 58 -46 74 -123 151 -187
186 -40 22 -50 24 -50 12 0 -18 -16 -21 -26 -5 -3 6 0 15 7 20 8 5 9 9 3 9 -6
0 -17 -7 -24 -15 -10 -12 -10 -15 0 -15 8 0 10 -3 7 -6 -4 -4 -13 -2 -20 5
-11 9 -17 8 -26 -3 -9 -11 -8 -15 4 -20 11 -4 15 -15 13 -33 l-3 -28 -85 4
c-47 1 -99 9 -117 16 -17 7 -34 11 -37 8 -3 -4 -15 2 -27 13 -20 18 -21 18
-35 -1 -8 -10 -14 -26 -14 -34 0 -12 -3 -12 -12 -3 -17 17 -38 15 -38 -5 0
-15 -2 -14 -15 3 -13 18 -14 18 -15 1 0 -13 -5 -17 -19 -12 -16 5 -18 2 -14
-15 3 -11 2 -20 -2 -20 -11 0 -44 44 -45 60 0 10 -5 7 -16 -8 -18 -26 -39 -29
-30 -4 13 37 -78 -76 -100 -124 -44 -98 -56 -234 -29 -333 34 -128 109 -238
204 -299 l56 -36 -45 -8 c-25 -5 -82 -10 -127 -10 -45 -1 -80 -4 -77 -7 3 -4
9 -6 12 -7 4 0 15 -4 25 -8 9 -5 24 -6 32 -2 8 3 15 0 15 -7 0 -8 4 -6 10 3 9
13 10 13 10 0 0 -13 1 -13 10 0 7 11 10 11 10 2 0 -7 4 -11 8 -8 9 5 214 65
242 70 28 6 105 15 215 27 111 11 271 46 335 72 37 15 65 12 54 -5 -4 -7 -2
-8 5 -4 9 6 9 11 1 21 -10 11 -8 13 9 10 12 -2 19 0 17 4 -3 4 5 19 17 32 23
24 65 97 94 159 8 19 25 88 37 153 12 65 24 115 27 112 3 -3 6 2 6 10 0 8 -4
12 -8 10 -9 -6 -6 15 4 32 4 6 3 13 -3 15 -5 1 8 24 30 49 22 26 36 49 33 53
-3 3 -12 1 -19 -5 -23 -19 -54 7 -54 46 0 29 4 36 25 41 40 10 30 30 -12 25
-7 -1 -13 3 -13 9 0 6 -4 9 -8 6 -18 -11 -11 52 8 69 23 21 27 40 6 32 -7 -3
-18 -1 -22 3 -8 8 -24 13 -63 19 -3 1 10 16 28 35 l32 33 -24 6 c-13 4 -33 5
-45 2 -26 -5 -30 21 -7 51 20 27 19 29 -15 32 -34 3 -74 -14 -65 -27 2 -5 -2
-14 -9 -21 -8 -6 -13 -20 -11 -31 2 -10 -1 -19 -6 -19 -6 0 -7 -4 -4 -10 3 -5
0 -7 -8 -5 -7 3 -20 18 -29 33 -9 15 -32 45 -52 66 -19 22 -43 55 -53 73 -10
18 -23 33 -30 33 -7 0 -22 9 -33 20 -11 11 -17 20 -14 20 4 0 0 7 -7 17 -8 9
-13 18 -12 19 6 9 -9 31 -21 31 -11 0 -12 -7 -4 -29z m-32 -503 c-7 -9 -15
-13 -18 -10 -3 2 1 11 8 20 7 9 15 13 18 10 3 -2 -1 -11 -8 -20z m93 -8 c3 -8
-1 -14 -9 -14 -15 0 -18 9 -7 20 9 9 10 9 16 -6z m-592 -90 c10 -18 9 -18 -15
-2 -15 10 -23 22 -19 32 6 16 10 12 34 -30z m575 6 c-2 -9 -8 -19 -15 -21 -10
-3 -10 0 -2 17 14 25 20 27 17 4z m54 -13 c-20 -13 -33 -13 -25 0 3 6 14 10
23 10 15 0 15 -2 2 -10z m8 -29 c14 -9 6 -19 -35 -40 -22 -11 -22 -11 -5 19
19 33 21 34 40 21z m38 -23 c4 -6 3 -8 -4 -4 -6 3 -15 -2 -21 -11 -6 -10 -11
-13 -11 -7 0 9 19 34 26 34 2 0 6 -5 10 -12z m-829 -244 c-3 -3 -12 -4 -19 -1
-8 3 -5 6 6 6 11 1 17 -2 13 -5z m33 -49 c5 -3 10 -2 10 3 0 5 7 9 15 9 8 0
15 -4 15 -9 0 -4 -7 -8 -15 -8 -9 0 -18 -7 -22 -15 -5 -14 -8 -14 -25 2 -11
10 -23 17 -26 15 -4 -2 -8 2 -10 8 -4 11 38 8 58 -5z m9 -28 c11 20 12 19 15
-49 1 -34 9 -55 26 -73 25 -27 37 -60 17 -49 -8 5 -7 2 1 -7 15 -16 16 -33 0
-23 -6 4 -8 3 -5 -4 4 -5 18 -9 32 -7 14 1 25 -2 25 -6 0 -5 -5 -9 -11 -9 -5
0 -7 -4 -4 -10 3 -6 -4 -10 -17 -10 -17 0 -35 15 -60 48 -40 52 -84 171 -74
198 6 16 8 16 25 0 18 -17 20 -16 30 1z"/>
<path d="M1565 9160 c4 -6 11 -8 16 -5 14 9 11 15 -7 15 -8 0 -12 -5 -9 -10z"/>
<path d="M2495 9126 c2 -16 7 -31 11 -35 4 -3 4 2 1 11 -3 10 -2 20 3 23 6 4
10 12 10 18 0 8 -3 7 -9 -2 -7 -11 -9 -11 -14 0 -3 8 -4 1 -2 -15z"/>
<path d="M3186 9108 c3 -5 10 -6 15 -3 13 9 11 12 -6 12 -8 0 -12 -4 -9 -9z"/>
<path d="M1426 8938 c3 -5 10 -6 15 -3 13 9 11 12 -6 12 -8 0 -12 -4 -9 -9z"/>
<path d="M1390 8929 c0 -5 5 -7 10 -4 6 3 10 8 10 11 0 2 -4 4 -10 4 -5 0 -10
-5 -10 -11z"/>
<path d="M860 8636 c0 -9 5 -16 10 -16 6 0 10 4 10 9 0 6 -4 13 -10 16 -5 3
-10 -1 -10 -9z"/>
<path d="M3767 8626 c-9 -7 -17 -22 -17 -33 0 -10 -6 -25 -12 -32 -11 -11 -9
-11 10 -2 17 9 22 9 23 -1 1 -7 2 -20 3 -28 1 -8 -3 -21 -9 -29 -8 -12 -6 -13
11 -9 24 6 57 -9 49 -23 -4 -5 2 -6 11 -2 12 4 15 3 10 -5 -4 -7 -2 -12 5 -12
15 0 4 59 -23 122 -25 59 -38 70 -61 54z"/>
<path d="M1890 8470 l-25 -19 24 4 c28 5 47 20 34 28 -5 3 -20 -3 -33 -13z"/>
<path d="M1896 8365 c-4 -11 2 -15 21 -15 21 0 24 2 13 15 -7 8 -16 15 -20 15
-4 0 -10 -7 -14 -15z"/>
<path d="M3822 8341 c-17 -17 -32 -25 -32 -18 0 7 -5 4 -11 -6 -8 -14 -8 -22
1 -30 8 -9 10 -8 5 4 -4 10 0 16 9 16 8 0 17 -6 20 -14 6 -13 37 -19 35 -5 -1
4 0 9 1 12 2 5 7 70 5 70 0 0 -15 -13 -33 -29z m24 -6 c-1 -8 -5 -17 -8 -21
-5 -4 -4 16 1 34 3 9 9 -1 7 -13z"/>
<path d="M2509 7965 c0 -11 -3 -14 -6 -7 -7 19 -33 14 -33 -6 0 -37 45 -55 80
-32 13 8 11 14 -12 37 -25 25 -28 26 -29 8z"/>
<path d="M1933 7933 c-27 -5 -29 -16 -8 -33 20 -16 45 -9 63 18 14 21 13 22
-9 21 -13 -1 -34 -4 -46 -6z"/>
<path d="M3691 7797 c-8 -10 -7 -14 4 -14 8 0 16 6 19 14 3 7 2 13 -3 13 -5 0
-14 -6 -20 -13z"/>
<path d="M3621 7781 c-9 -6 -10 -11 -2 -15 6 -4 11 -2 11 4 0 6 5 8 12 4 7 -4
8 -3 4 4 -8 14 -7 14 -25 3z"/>
<path d="M3466 7768 c3 -4 9 -8 15 -8 5 0 9 4 9 8 0 5 -7 9 -15 9 -8 0 -12 -4
-9 -9z"/>
<path d="M3470 7741 c0 -6 4 -13 10 -16 6 -3 7 1 4 9 -7 18 -14 21 -14 7z"/>
<path d="M3559 7748 c-1 -5 -2 -12 -3 -17 0 -5 -5 -13 -10 -18 -5 -4 -6 -3 -2
4 3 6 2 14 -4 18 -5 3 -10 -1 -10 -10 0 -10 -6 -15 -13 -12 -8 3 -14 -1 -14
-8 0 -14 32 -9 59 10 11 7 14 15 7 25 -5 8 -9 12 -10 8z"/>
<path d="M982 7694 c-12 -8 -20 -19 -17 -23 2 -5 -2 -17 -10 -27 -18 -23 -19
-37 -3 -32 6 2 12 12 14 22 1 10 11 24 21 32 10 7 14 14 9 14 -5 0 -3 7 4 15
16 19 10 19 -18 -1z"/>
<path d="M3516 7673 c-6 -14 -5 -15 5 -6 7 7 10 15 7 18 -3 3 -9 -2 -12 -12z"/>
<path d="M994 7639 c-26 -27 -45 -38 -58 -35 -13 3 -16 2 -9 -5 6 -6 19 -11
30 -12 13 0 19 -6 16 -14 -7 -17 5 -16 23 2 9 8 11 15 5 15 -17 0 -2 44 21 62
13 9 20 19 17 22 -3 3 -23 -13 -45 -35z"/>
<path d="M864 7604 c-18 -14 -18 -15 4 -4 12 6 22 13 22 15 0 8 -5 6 -26 -11z"/>
<path d="M955 7540 c-8 -13 5 -13 25 0 13 8 13 10 -2 10 -9 0 -20 -4 -23 -10z"/>
<path d="M723 7495 c-5 -14 -8 -14 -15 -3 -8 10 -9 10 -5 -2 4 -16 54 -23 63
-9 2 4 -5 13 -16 19 -16 9 -22 8 -27 -5z"/>
<path d="M572 7480 c0 -14 2 -19 5 -12 2 6 2 18 0 25 -3 6 -5 1 -5 -13z"/>
<path d="M800 7485 c-17 -21 -5 -31 15 -12 8 9 15 18 15 21 0 11 -18 6 -30 -9z"/>
<path d="M630 7221 c0 -6 15 -18 33 -27 30 -16 31 -16 18 0 -19 23 -51 40 -51
27z"/>
<path d="M980 6916 c0 -2 8 -10 18 -17 15 -13 16 -12 3 4 -13 16 -21 21 -21
13z"/>
<path d="M4195 6109 c-4 -6 -5 -12 -2 -15 2 -3 7 2 10 11 7 17 1 20 -8 4z"/>
<path d="M1350 5145 c0 -2 6 -8 13 -14 10 -8 14 -7 14 2 0 8 -6 14 -14 14 -7
0 -13 -1 -13 -2z"/>
<path d="M1714 5118 c2 -7 7 -13 12 -13 5 0 16 -4 24 -10 12 -7 13 -6 3 7 -7
8 -9 19 -5 24 4 4 0 3 -10 -4 -11 -9 -18 -9 -21 -2 -3 6 -4 5 -3 -2z"/>
<path d="M1556 5109 c3 -5 9 -7 14 -4 4 3 11 0 13 -5 3 -6 4 -5 3 1 -1 7 -10
13 -19 15 -9 1 -15 -2 -11 -7z"/>
<path d="M1605 5111 c-3 -5 -2 -12 3 -15 5 -3 9 1 9 9 0 17 -3 19 -12 6z"/>
<path d="M1898 5072 c13 -4 23 -11 22 -16 -1 -14 29 -16 37 -3 3 7 3 9 -2 5
-4 -4 -14 -1 -22 7 -8 8 -24 15 -36 14 -21 -1 -21 -1 1 -7z"/>
<path d="M1210 4890 c-12 -16 -17 -30 -11 -30 6 0 8 -8 4 -17 -3 -10 -3 -15 2
-11 4 4 8 17 9 29 0 12 7 24 15 27 9 3 11 0 5 -9 -7 -12 -5 -12 9 0 13 10 15
17 6 27 -15 18 -14 19 -39 -16z"/>
<path d="M1150 4850 c0 -5 5 -10 11 -10 5 0 7 5 4 10 -3 6 -8 10 -11 10 -2 0
-4 -4 -4 -10z"/>
<path d="M1068 4755 c-15 -19 -15 -21 3 -22 10 -1 19 3 19 8 0 6 4 8 8 5 4 -2
8 3 9 13 2 24 -19 22 -39 -4z"/>
<path d="M1186 4763 c-3 -8 -1 -11 4 -8 5 3 19 1 30 -5 19 -10 20 -9 9 8 -14
22 -36 25 -43 5z"/>
<path d="M1136 4615 c5 -11 2 -13 -10 -9 -9 3 -16 2 -16 -3 0 -5 11 -9 24 -9
21 0 23 3 15 18 -12 22 -21 24 -13 3z"/>
<path d="M1920 4495 c0 -8 7 -15 15 -15 8 0 15 4 15 9 0 5 -7 11 -15 15 -9 3
-15 0 -15 -9z"/>
<path d="M1826 4377 c3 -10 9 -15 12 -12 3 3 0 11 -7 18 -10 9 -11 8 -5 -6z"/>
<path d="M1972 3431 c-10 -6 -11 -16 -4 -42 7 -22 11 -27 12 -14 1 11 3 30 6
43 4 25 4 25 -14 13z"/>
<path d="M1802 3380 c0 -14 2 -19 5 -12 2 6 2 18 0 25 -3 6 -5 1 -5 -13z"/>
<path d="M2156 3338 c-3 -13 -5 -32 -5 -43 1 -11 5 -2 10 19 10 42 6 62 -5 24z"/>
<path d="M2176 3251 c-4 -5 -2 -12 3 -15 5 -4 12 -2 15 3 4 5 2 12 -3 15 -5 4
-12 2 -15 -3z"/>
<path d="M2160 3214 c0 -11 -3 -24 -7 -28 -4 -4 -7 -19 -8 -34 0 -18 -5 -26
-14 -24 -12 3 -12 1 0 -14 13 -16 14 -16 18 1 2 13 5 14 11 5 5 -8 9 -9 14 -1
4 6 2 11 -3 11 -14 0 -14 53 -1 66 6 6 6 15 0 24 -8 12 -10 11 -10 -6z"/>
<path d="M2093 2903 c-3 -10 -8 -22 -11 -28 -3 -5 5 0 17 12 23 25 26 33 11
33 -6 0 -13 -8 -17 -17z"/>
<path d="M2105 2860 l-17 -35 22 23 c12 12 20 28 17 35 -2 7 -12 -4 -22 -23z"/>
<path d="M5580 2820 c0 -5 5 -10 11 -10 5 0 7 5 4 10 -3 6 -8 10 -11 10 -2 0
-4 -4 -4 -10z"/>
<path d="M5644 2793 c2 -10 6 -17 10 -16 15 3 16 11 2 22 -12 10 -14 9 -12 -6z"/>
<path d="M1676 2680 c-55 -57 -105 -100 -116 -100 -10 0 -32 -17 -49 -37 -32
-38 -34 -56 -4 -32 14 11 13 9 -2 -13 -11 -15 -25 -26 -31 -24 -15 6 -34 -14
-34 -33 0 -8 -9 -24 -20 -36 -12 -12 -22 -39 -24 -61 -2 -28 -12 -48 -35 -70
-29 -29 -42 -52 -22 -40 5 3 11 -1 15 -9 3 -8 0 -15 -6 -15 -7 0 -8 -13 -4
-38 4 -27 1 -45 -10 -61 -15 -21 -15 -22 2 -19 13 2 18 -2 16 -12 -2 -8 -6
-43 -8 -78 -2 -48 0 -64 11 -69 8 -3 15 -12 15 -20 0 -8 -5 -11 -12 -7 -7 5
-8 3 -4 -5 5 -7 14 -10 21 -7 10 4 11 -2 5 -25 -6 -20 -5 -33 4 -42 7 -7 11
-18 8 -26 -3 -8 0 -11 5 -8 5 3 10 -3 10 -14 2 -18 0 -19 -15 -7 -15 12 -16
11 -3 -4 7 -10 10 -18 5 -18 -4 0 -2 -6 5 -13 10 -10 16 -7 31 13 11 14 20 20
20 13 0 -6 -4 -14 -10 -18 -6 -4 -6 -15 0 -31 11 -27 5 -48 -11 -39 -5 4 -9 1
-9 -6 0 -6 8 -9 18 -7 13 4 18 -1 20 -19 1 -13 -1 -22 -6 -20 -4 3 -8 -8 -9
-24 -1 -16 2 -27 6 -24 5 2 12 -2 15 -11 11 -28 6 -38 -8 -18 -13 17 -14 15
-11 -26 2 -32 8 -46 19 -48 9 -2 14 -8 10 -13 -3 -5 -10 -6 -16 -3 -6 4 -6 -1
1 -14 6 -11 11 -48 11 -82 0 -41 4 -59 11 -55 6 4 10 1 8 -6 -1 -8 -1 -47 0
-86 1 -58 4 -73 16 -73 13 0 21 26 16 53 -1 5 3 6 7 3 10 -6 8 -48 -3 -66 -3
-5 -9 -8 -13 -6 -4 2 -8 -7 -8 -20 -2 -20 0 -21 13 -9 8 8 21 15 29 15 13 0
13 -2 0 -16 -21 -21 -20 -27 4 -21 11 3 20 2 20 -2 0 -13 -24 -31 -42 -31 -21
0 -24 -18 -4 -26 9 -3 12 -13 8 -27 -5 -18 -3 -20 9 -10 12 10 15 8 16 -7 1
-12 -3 -17 -12 -14 -7 3 -16 1 -20 -5 -7 -13 19 -54 28 -44 4 3 7 -1 7 -10 0
-8 9 -19 20 -22 11 -4 18 -11 15 -16 -4 -5 -1 -9 5 -9 7 0 5 -7 -4 -16 -9 -8
-16 -19 -16 -24 0 -5 -10 -12 -21 -15 -17 -6 -19 -9 -8 -16 10 -6 1 -9 -26
-10 -22 -1 -47 -3 -55 -4 -8 -1 -21 -3 -28 -4 -7 0 -11 -5 -8 -9 2 -4 -4 -8
-14 -8 -15 0 -16 3 -8 13 9 11 6 12 -17 3 -16 -6 -35 -8 -42 -6 -7 3 -21 -2
-31 -12 -10 -10 -30 -16 -46 -15 -15 1 -49 -2 -75 -7 -32 -6 -50 -5 -60 3 -12
10 -14 9 -8 -6 5 -12 1 -17 -13 -17 -10 0 -26 -7 -34 -16 -9 -8 -20 -13 -25
-10 -5 3 -14 -1 -21 -10 -7 -8 -19 -13 -27 -10 -7 3 -13 1 -13 -5 0 -6 -4 -7
-10 -4 -5 3 -10 1 -10 -5 0 -6 -16 -25 -36 -42 l-36 -32 38 -19 c51 -26 247
-28 674 -4 179 10 425 17 548 16 190 -1 226 1 247 15 14 9 100 34 192 56 93
22 177 44 188 49 19 9 19 10 -3 10 -33 1 -146 59 -161 83 -10 17 -10 23 5 39
9 10 22 16 28 12 6 -3 8 -3 4 1 -8 9 13 36 23 30 16 -10 -4 84 -30 139 -33 71
-73 168 -127 312 -46 123 -83 200 -136 285 -42 65 -135 182 -152 189 -4 2 -18
14 -30 28 -23 27 -156 113 -180 117 -65 9 -274 193 -256 226 32 60 240 220
339 262 29 11 50 26 48 32 -2 6 -35 22 -73 36 -38 14 -82 32 -99 41 -16 9 -42
19 -57 23 -16 3 -28 10 -28 14 0 5 -14 24 -30 42 -17 19 -35 52 -41 75 -6 22
-13 46 -15 53 -2 8 -9 10 -16 6 -7 -4 -10 -4 -6 1 8 9 -8 45 -20 45 -5 0 -52
-45 -106 -100z m-306 -698 c0 -7 -4 -10 -10 -7 -5 3 -10 16 -10 28 0 18 2 19
10 7 5 -8 10 -21 10 -28z m154 -587 c-4 -8 -8 -15 -10 -15 -2 0 -4 7 -4 15 0
8 4 15 10 15 5 0 7 -7 4 -15z m-37 -27 c-3 -8 -6 -5 -6 6 -1 11 2 17 5 13 3
-3 4 -12 1 -19z"/>
<path d="M5620 2762 c0 -5 7 -9 15 -9 8 0 12 4 9 9 -3 4 -9 8 -15 8 -5 0 -9
-4 -9 -8z"/>
<path d="M5623 2725 c0 -8 4 -12 9 -9 5 3 6 10 3 15 -9 13 -12 11 -12 -6z"/>
<path d="M2271 2424 c0 -11 3 -14 6 -6 3 7 2 16 -1 19 -3 4 -6 -2 -5 -13z"/>
<path d="M2839 2253 c-13 -16 -12 -17 4 -4 9 7 17 15 17 17 0 8 -8 3 -21 -13z"/>
<path d="M2692 2174 c-8 -9 -9 -14 -2 -14 6 0 8 -6 4 -12 -4 -7 2 -5 13 5 11
9 22 15 25 12 2 -3 5 1 5 8 0 18 -29 18 -45 1z"/>
<path d="M1327 2153 c-4 -3 -7 -13 -7 -22 1 -13 3 -13 11 2 11 19 8 33 -4 20z"/>
<path d="M3965 2051 c3 -5 1 -12 -4 -16 -12 -7 5 -52 27 -75 8 -8 12 -9 8 -2
-4 6 -2 12 3 12 14 0 14 12 -1 47 -6 15 -11 31 -10 36 1 4 -5 7 -14 7 -8 0
-13 -4 -9 -9z"/>
<path d="M2640 2020 c0 -5 5 -10 11 -10 5 0 7 5 4 10 -3 6 -8 10 -11 10 -2 0
-4 -4 -4 -10z"/>
<path d="M2915 1969 c-8 -26 -5 -29 20 -18 17 6 17 8 3 8 -11 1 -15 6 -12 16
4 8 4 15 1 15 -3 0 -9 -9 -12 -21z"/>
<path d="M4275 1739 c-4 -6 -5 -12 -2 -15 2 -3 7 2 10 11 7 17 1 20 -8 4z"/>
<path d="M4228 1733 c7 -3 16 -2 19 1 4 3 -2 6 -13 5 -11 0 -14 -3 -6 -6z"/>
<path d="M2913 1705 c4 -4 0 -16 -9 -26 -12 -13 -12 -19 -3 -25 8 -4 10 -3 5
4 -5 8 0 12 13 12 26 0 27 13 4 31 -10 7 -15 9 -10 4z"/>
<path d="M2896 1573 c-6 -14 -5 -15 5 -6 7 7 10 15 7 18 -3 3 -9 -2 -12 -12z"/>
<path d="M1451 1384 c0 -11 3 -14 6 -6 3 7 2 16 -1 19 -3 4 -6 -2 -5 -13z"/>
<path d="M2890 1396 c0 -2 8 -10 18 -17 15 -13 16 -12 3 4 -13 16 -21 21 -21
13z"/>
<path d="M1461 1264 c0 -11 3 -14 6 -6 3 7 2 16 -1 19 -3 4 -6 -2 -5 -13z"/>
<path d="M1518 1058 c5 -5 16 -8 23 -6 8 3 3 7 -10 11 -17 4 -21 3 -13 -5z"/>
<path d="M926 615 c-3 -8 -1 -15 4 -15 6 0 10 7 10 15 0 8 -2 15 -4 15 -2 0
-6 -7 -10 -15z"/>
<path d="M3636 600 c5 -8 9 -18 9 -22 0 -3 3 -9 7 -13 3 -4 5 0 4 9 -1 9 -8
22 -16 29 -10 10 -11 9 -4 -3z"/>
</g>
</svg>
